<svg width="44" height="44" fill="none" xmlns="http://www.w3.org/2000/svg"><path d="M0 8a8 8 0 018-8h28a8 8 0 018 8v28a8 8 0 01-8 8H8a8 8 0 01-8-8V8z" fill="#6671C1"/><path d="M17.556 10.191H27.58v-.596A.597.597 0 0026.984 9H9.595A.596.596 0 009 9.595v22.103c0 .328.267.595.595.595h.596V17.556c0-.653.275-1.321.746-1.801l4.818-4.818a2.56 2.56 0 011.801-.746z" fill="#fff"/><path d="M16.581 16.581v-3.709l-3.709 3.71h3.709zM18.532 23.841a5.316 5.316 0 005.31 5.31 5.316 5.316 0 005.31-5.31 5.316 5.316 0 00-5.31-5.309 5.316 5.316 0 00-5.31 5.309z" fill="#fff"/><path d="M23.842 31.102c-4.004 0-7.261-3.257-7.261-7.26 0-4.005 3.257-7.262 7.261-7.262 2.02 0 3.927.853 5.31 2.358v-6.2a.596.596 0 00-.595-.595H18.532v5.414a.977.977 0 01-.976.976h-5.413V33.27c0 .328.267.596.595.596h15.818a.566.566 0 00.413-.184l-2.932-2.933a7.078 7.078 0 01-2.195.353z" fill="#fff"/><path d="M35.031 33.078l-5.168-5.22a7.218 7.218 0 01-1.971 1.986l5.187 5.188c.261.26.608.405.977.405.368 0 .715-.144.976-.405.261-.26.404-.607.404-.976a1.376 1.376 0 00-.405-.978z" fill="#fff"/><g clip-path="url(#clip0)" fill-rule="evenodd" clip-rule="evenodd"><path d="M44 36.76c0 3.999-3.219 7.24-7.189 7.24H7.189C3.219 44 0 40.759 0 36.76V7.24C0 3.24 3.219 0 7.189 0h29.622C40.781 0 44 3.241 44 7.24v29.52z" fill="#6671C1"/><path d="M10.598 20.852h12.44V10.803h-12.44v10.049zM20.577 33.223h12.441V23.175h-12.44v10.048zM25.362 20.852h7.656V10.803h-7.656v10.049zM10.598 33.223h7.655V23.175h-7.655v10.048z" fill="#fff"/></g><defs><clipPath id="clip0"><path fill="#fff" d="M0 0h44v44H0z"/></clipPath></defs></svg>