<svg width="44" height="44" fill="none" xmlns="http://www.w3.org/2000/svg"><path d="M0 8a8 8 0 018-8h28a8 8 0 018 8v28a8 8 0 01-8 8H8a8 8 0 01-8-8V8z" fill="#70B0DC"/><path d="M17.556 10.191H27.58v-.596A.597.597 0 0026.984 9H9.595A.596.596 0 009 9.595v22.103c0 .328.267.595.595.595h.596V17.556c0-.653.275-1.321.746-1.801l4.818-4.818a2.56 2.56 0 011.801-.746z" fill="#fff"/><path d="M16.581 16.58v-3.708l-3.709 3.709h3.71zM18.532 23.841a5.316 5.316 0 005.31 5.31 5.316 5.316 0 005.31-5.31 5.316 5.316 0 00-5.31-5.309 5.316 5.316 0 00-5.31 5.309z" fill="#fff"/><path d="M23.842 31.102c-4.004 0-7.26-3.257-7.26-7.261s3.256-7.261 7.26-7.261c2.02 0 3.927.853 5.31 2.358v-6.2a.596.596 0 00-.595-.595H18.532v5.414a.977.977 0 01-.976.976h-5.413V33.27c0 .328.267.596.595.596h15.818a.566.566 0 00.413-.184l-2.932-2.933a7.078 7.078 0 01-2.195.353z" fill="#fff"/><path d="M35.031 33.078l-5.168-5.219a7.218 7.218 0 01-1.97 1.985l5.186 5.188c.261.261.608.405.977.405.368 0 .715-.144.976-.405.261-.26.404-.607.404-.976a1.376 1.376 0 00-.405-.978z" fill="#fff"/><g clip-path="url(#clip0)" fill-rule="evenodd" clip-rule="evenodd"><path d="M44 36.76C44 40.76 40.781 44 36.811 44H7.189C3.219 44 0 40.759 0 36.76V7.24C0 3.24 3.219 0 7.189 0h29.622C40.781 0 44 3.241 44 7.24v29.52z" fill="#78D4DB"/><path d="M31.949 30.006h-2.217c-.38 0-.69-.31-.69-.69v-2.209c0-.38.31-.69.69-.69.38 0 .69.31.69.69v1.519h1.527c.38 0 .69.31.69.69 0 .38-.31.69-.69.69zm-2.01-6.35a4.834 4.834 0 00-4.832 4.832 4.833 4.833 0 004.832 4.822 4.83 4.83 0 004.822-4.822 4.833 4.833 0 00-4.822-4.832z" fill="#fff"/><path d="M28.559 19.524h-1.38c-.38 0-.691-.31-.691-.69 0-.38.31-.69.69-.69h1.38c.38 0 .69.31.69.69 0 .38-.31.69-.69.69zm0 2.752h-1.38a.687.687 0 110-1.372h1.38a.685.685 0 110 1.372zm-4.142-2.752h-1.38c-.38 0-.69-.31-.69-.69 0-.38.31-.69.69-.69h1.38c.38 0 .69.31.69.69 0 .38-.31.69-.69.69zm0 2.752h-1.38a.687.687 0 110-1.372h1.38a.685.685 0 110 1.372zm0 2.76h-1.38c-.38 0-.69-.31-.69-.69 0-.379.31-.69.69-.69h1.38c.38 0 .69.311.69.69 0 .38-.31.69-.69.69zm-4.184-5.512H18.81c-.38 0-.69-.31-.69-.69 0-.38.31-.69.69-.69h1.423c.38 0 .742.31.742.69 0 .38-.362.69-.742.69zm0 2.752H18.81a.687.687 0 110-1.372h1.423c.38 0 .742.302.742.682 0 .388-.362.69-.742.69zm0 2.76H18.81c-.38 0-.69-.31-.69-.69 0-.379.31-.69.69-.69h1.423c.38 0 .742.311.742.69 0 .38-.362.69-.742.69zm0 2.762H18.81c-.38 0-.69-.311-.69-.69 0-.38.31-.69.69-.69h1.423c.38 0 .742.31.742.69 0 .379-.362.69-.742.69zm-4.184-8.274h-1.372a.687.687 0 01-.69-.69c0-.38.302-.69.69-.69h1.372c.388 0 .69.31.69.69 0 .38-.302.69-.69.69zm0 2.752h-1.372a.681.681 0 01-.69-.69.68.68 0 01.69-.682h1.372a.68.68 0 01.69.682c0 .388-.302.69-.69.69zm0 2.76h-1.372a.687.687 0 01-.69-.69c0-.379.302-.69.69-.69h1.372c.388 0 .69.311.69.69 0 .38-.302.69-.69.69zm0 2.762h-1.372a.687.687 0 01-.69-.69c0-.38.302-.69.69-.69h1.372c.388 0 .69.31.69.69 0 .379-.302.69-.69.69zm-4.823-11.035v11.725a2.07 2.07 0 002.07 2.062h10.81c-.224-.647-.379-1.338-.379-2.062 0-.242.043-.466.07-.69h-.76c-.38 0-.69-.311-.69-.69 0-.38.31-.69.69-.69h1.07c.863-2.408 3.132-4.142 5.832-4.142.725 0 1.415.155 2.062.388v-5.9H11.226zM29.939 11.155H13.297c-1.14 0-2.07.932-2.07 2.07v2.158H32v-2.157a2.07 2.07 0 00-2.062-2.07z" fill="#fff"/></g><defs><clipPath id="clip0"><path fill="#fff" d="M0 0h44v44H0z"/></clipPath></defs></svg>