<svg width="44" height="44" fill="none" xmlns="http://www.w3.org/2000/svg"><path d="M0 8a8 8 0 018-8h28a8 8 0 018 8v28a8 8 0 01-8 8H8a8 8 0 01-8-8V8z" fill="#77D4DB"/><path d="M21.043 20.994a6.497 6.497 0 100-12.994 6.497 6.497 0 000 12.994zM21.729 23.422C14.702 23.422 9 28.628 9 35.045h25.459c0-6.417-5.702-11.623-12.73-11.623z" fill="#fff"/><g clip-path="url(#clip0)" fill-rule="evenodd" clip-rule="evenodd"><path d="M44 36.76C44 40.76 40.782 44 36.811 44H7.189C3.219 44 0 40.759 0 36.76V7.24C0 3.24 3.219 0 7.189 0h29.622C40.782 0 44 3.241 44 7.24v29.52z" fill="#70B0DC"/><path d="M25.473 24.146a3.119 3.119 0 106.238 0 3.119 3.119 0 00-6.238 0zM28.922 28.43c-3.374 0-6.112 2.5-6.112 5.581h12.223c0-3.08-2.737-5.58-6.111-5.58zM15.239 17.134a3.12 3.12 0 100-6.24 3.12 3.12 0 000 6.24zM15.568 18.3c-3.374 0-6.111 2.5-6.111 5.58H21.68c0-3.08-2.738-5.58-6.112-5.58zM27.555 15.853v.656a.847.847 0 00-.497-.158.85.85 0 00-.605.25.847.847 0 00-.25.605.85.85 0 00.25.605l1.352 1.351a.844.844 0 00.605.252.85.85 0 00.607-.25l1.352-1.353a.857.857 0 00-1.102-1.302v-.656c0-1.217-.99-2.209-2.209-2.209h-4.7a.858.858 0 00-.858.856c0 .472.385.856.857.856h4.701c.275 0 .497.223.497.497zM20.406 29.878h-3.46a.497.497 0 01-.498-.496v-.657c.144.104.317.16.497.16a.847.847 0 00.605-.251.849.849 0 00.251-.606.846.846 0 00-.251-.604l-1.351-1.352a.84.84 0 00-.28-.186.86.86 0 00-.932.186l-1.352 1.352a.856.856 0 001.101 1.302v.656a2.21 2.21 0 002.21 2.208h3.46a.857.857 0 000-1.712z" fill="#fff"/><g clip-path="url(#clip1)"><path d="M44 36.76C44 40.76 40.782 44 36.811 44H7.189C3.219 44 0 40.759 0 36.76V7.24C0 3.24 3.219 0 7.189 0h29.622C40.782 0 44 3.241 44 7.24v29.52z" fill="#78D4DB"/><path d="M27.748 20.806h-1.7c-.913 2.563-3.34 4.413-6.213 4.413a6.627 6.627 0 01-6.62-6.62c0-3.65 2.97-6.62 6.62-6.62 2.873 0 5.3 1.85 6.214 4.414h1.7c.295-.297.774-.8 1.075-1.023-1.328-3.686-4.85-6.333-8.989-6.333-5.272 0-9.61 4.29-9.61 9.562 0 5.273 4.338 9.563 9.61 9.563 4.138 0 7.66-2.647 8.99-6.333-.3-.223-.78-.726-1.076-1.023z" fill="#fff"/><path d="M33.947 18.599l1.306-2.613a.736.736 0 00-.89-1.027L29.9 16.431a.735.735 0 00-.287.177l-1.255 1.256h-8.523a.735.735 0 100 1.47h8.523l1.255 1.256c.081.08.18.142.287.178l4.462 1.47a.737.737 0 00.892-1.026L33.947 18.6zM25.72 31.202h-.941l-.766-2.396a10.968 10.968 0 01-8.355 0l-.766 2.396h-.941a2.206 2.206 0 00-2.206 2.207c0 .405.328.735.735.735H27.19c.406 0 .735-.33.735-.735 0-1.22-.988-2.207-2.206-2.207z" fill="#fff"/><path d="M19.835 16.393h4.635c-.828-1.735-2.585-2.943-4.635-2.943a5.149 5.149 0 000 10.298c2.05 0 3.807-1.207 4.635-2.942h-4.635a2.207 2.207 0 110-4.413z" fill="#fff"/></g></g><defs><clipPath id="clip0"><path fill="#fff" d="M0 0h44v44H0z"/></clipPath><clipPath id="clip1"><path fill="#fff" d="M0 0h44v44H0z"/></clipPath></defs></svg>