<svg width="44" height="44" fill="none" xmlns="http://www.w3.org/2000/svg"><path d="M0 8a8 8 0 018-8h28a8 8 0 018 8v28a8 8 0 01-8 8H8a8 8 0 01-8-8V8z" fill="#E57E9B"/><path d="M30.788 17.2c0-4.529-4.877-8.2-10.894-8.2S9 12.671 9 17.2c0 1.872.842 3.591 2.245 4.972v5.79S12.66 25.4 19.894 25.4c6.016 0 10.894-3.671 10.894-8.2z" fill="#fff"/><path d="M35.941 22.46c0-2.124-1.071-4.058-2.84-5.515.044.33.063.666.063 1.001 0 5.394-5.597 9.786-12.48 9.786-1.667 0-3.258-.26-4.709-.729 1.917 2.166 5.169 3.596 8.869 3.648l-.025.01c7.234 0 8.649 3.38 8.649 3.38v-6.38c1.545-1.416 2.473-3.227 2.473-5.202z" fill="#fff"/><g clip-path="url(#clip0)" fill-rule="evenodd" clip-rule="evenodd"><path d="M44 36.76C44 40.76 40.782 44 36.811 44H7.189C3.219 44 0 40.759 0 36.76V7.24C0 3.24 3.219 0 7.189 0h29.622C40.782 0 44 3.241 44 7.24v29.52z" fill="#E47E9B"/><path d="M21.653 20.914a5.604 5.604 0 005.605-5.606 5.605 5.605 0 10-5.604 5.605zM22.245 23.01c-6.063 0-10.982 4.49-10.982 10.027h21.965c0-5.536-4.92-10.028-10.983-10.028z" fill="#fff"/></g><defs><clipPath id="clip0"><path fill="#fff" d="M0 0h44v44H0z"/></clipPath></defs></svg>