<svg width="44" height="44" fill="none" xmlns="http://www.w3.org/2000/svg"><path d="M0 8a8 8 0 018-8h28a8 8 0 018 8v28a8 8 0 01-8 8H8a8 8 0 01-8-8V8z" fill="#28C9D3"/><path d="M30.788 17.2c0-4.529-4.877-8.2-10.894-8.2S9 12.671 9 17.2c0 1.872.842 3.591 2.245 4.972v5.79S12.66 25.4 19.894 25.4c6.016 0 10.894-3.671 10.894-8.2z" fill="#fff"/><path d="M35.941 22.46c0-2.124-1.07-4.058-2.84-5.515.044.33.063.666.063 1.001 0 5.394-5.597 9.786-12.48 9.786-1.667 0-3.258-.26-4.709-.729 1.917 2.166 5.17 3.596 8.87 3.648l-.026.01c7.234 0 8.65 3.38 8.65 3.38v-6.38c1.544-1.416 2.472-3.227 2.472-5.202z" fill="#fff"/><g clip-path="url(#clip0)" fill-rule="evenodd" clip-rule="evenodd"><path d="M44 36.76C44 40.76 40.782 44 36.811 44H7.189C3.219 44 0 40.759 0 36.76V7.24C0 3.24 3.219 0 7.189 0h29.622C40.782 0 44 3.241 44 7.24v29.52z" fill="#70B0DC"/><path d="M25.474 24.146a3.119 3.119 0 106.237 0 3.119 3.119 0 00-6.237 0zM28.922 28.43c-3.375 0-6.112 2.5-6.112 5.581h12.223c0-3.08-2.737-5.58-6.111-5.58zM15.239 17.134a3.12 3.12 0 100-6.24 3.12 3.12 0 000 6.24zM15.568 18.3c-3.374 0-6.111 2.5-6.111 5.58H21.68c0-3.08-2.738-5.58-6.112-5.58zM27.555 15.853v.656a.847.847 0 00-.497-.158.85.85 0 00-.605.25.847.847 0 00-.25.605.85.85 0 00.25.605l1.352 1.351a.844.844 0 00.605.252.85.85 0 00.607-.25l1.352-1.353a.857.857 0 00-1.102-1.302v-.656c0-1.217-.99-2.209-2.209-2.209h-4.7a.858.858 0 00-.858.856c0 .472.385.856.857.856h4.701c.275 0 .497.223.497.497zM20.405 29.878h-3.46a.497.497 0 01-.497-.496v-.657c.144.104.317.16.497.16a.847.847 0 00.605-.251.849.849 0 00.25-.606.847.847 0 00-.25-.604l-1.351-1.352a.84.84 0 00-.28-.186.86.86 0 00-.932.186l-1.352 1.352a.856.856 0 001.101 1.302v.656a2.21 2.21 0 002.209 2.208h3.46a.857.857 0 000-1.712z" fill="#fff"/><g clip-path="url(#clip1)"><path d="M44 36.76C44 40.76 40.782 44 36.811 44H7.189C3.219 44 0 40.759 0 36.76V7.24C0 3.24 3.219 0 7.189 0h29.622C40.782 0 44 3.241 44 7.24v29.52z" fill="#E47E9B"/><path d="M24.5 24.398h1.103v-5.175H24.5v5.175zm-1.74 0l-.318-.876h-2.22l-.325.876H18.64l2.001-5.175h1.38l1.995 5.175H22.76zm-6.834 3.732h12.639V15.492H15.926V28.13z" fill="#fff"/><path d="M14.253 29.772h15.984V13.85H14.253v15.92zm20.135-13.848v-1.487h-1.92v-1.702c0-.616-.5-1.116-1.116-1.116h-1.733V9.7h-1.487v1.92h-1.165V9.7H25.48v1.92h-1.166V9.7h-1.486v1.92h-1.165V9.7h-1.487v1.92H19.01V9.7h-1.486v1.92h-1.166V9.7h-1.486v1.92h-1.733c-.616 0-1.116.5-1.116 1.116v1.702h-1.92v1.487h1.92v1.165h-1.92v1.487h1.92v1.165h-1.92v1.487h1.92v1.165h-1.92v1.487h1.92v1.166h-1.92v1.486h1.92v1.166h-1.92v1.486h1.92v1.702c0 .616.5 1.116 1.116 1.116h1.733v1.92h1.486v-1.92h1.166v1.92h1.486v-1.92h1.166v1.92h1.487v-1.92h1.165v1.92h1.486v-1.92h1.166v1.92h1.487v-1.92h1.165v1.92h1.487v-1.92h1.733c.616 0 1.116-.5 1.116-1.116v-1.702h1.92v-1.486h-1.92v-1.166h1.92v-1.486h-1.92V23.88h1.92v-1.487h-1.92v-1.165h1.92V19.74h-1.92v-1.165h1.92v-1.487h-1.92v-1.165h1.92z" fill="#fff"/><path d="M20.525 22.551h1.615l-.808-2.226-.807 2.226z" fill="#fff"/></g></g><defs><clipPath id="clip0"><path fill="#fff" d="M0 0h44v44H0z"/></clipPath><clipPath id="clip1"><path fill="#fff" d="M0 0h44v44H0z"/></clipPath></defs></svg>