<svg width="44" height="44" fill="none" xmlns="http://www.w3.org/2000/svg"><path d="M0 8a8 8 0 018-8h28a8 8 0 018 8v28a8 8 0 01-8 8H8a8 8 0 01-8-8V8z" fill="#70B0DC"/><path d="M14.907 35.418a5.907 5.907 0 100-11.814 5.907 5.907 0 000 11.814zM29.511 20.814a5.907 5.907 0 100-11.814 5.907 5.907 0 000 11.814zM11.735 15.827l1.594-1.41v4.745a1.585 1.585 0 103.17 0v-4.746l1.594 1.412c.301.267.677.398 1.05.398a1.585 1.585 0 001.051-2.771l-4.23-3.745-.01-.007c-.009-.008-.02-.014-.03-.022a1.572 1.572 0 00-.317-.202c-.016-.008-.027-.02-.043-.028-.016-.007-.033-.007-.049-.014a1.602 1.602 0 00-.386-.11c-.002 0-.004 0-.007-.002a1.583 1.583 0 00-.5.021 1.542 1.542 0 00-.345.104c-.013.005-.026.007-.038.013-.12.057-.232.134-.338.222-.012.01-.026.015-.038.025l-4.229 3.744a1.585 1.585 0 002.101 2.373zM33.92 25.102a1.584 1.584 0 00-2.241 0L29.51 27.27l-2.168-2.168a1.584 1.584 0 10-2.241 2.24l2.168 2.169-2.168 2.168a1.584 1.584 0 002.24 2.24l2.168-2.167 2.168 2.168a1.58 1.58 0 002.24 0 1.584 1.584 0 000-2.241L31.75 29.51l2.168-2.168a1.583 1.583 0 00.002-2.241z" fill="#fff"/><g clip-path="url(#clip0)" fill-rule="evenodd" clip-rule="evenodd"><path d="M44 36.76C44 40.76 40.781 44 36.811 44H7.189C3.218 44 0 40.759 0 36.76V7.24C0 3.24 3.218 0 7.189 0h29.622C40.781 0 44 3.241 44 7.24v29.52z" fill="#78D4DB"/><path d="M30.153 12.11c-7.641 0-9.717 13.207-13.774 13.207h-2.075v1.981H32.89V12.109h-2.736z" fill="#fff"/><path d="M12.547 12.11h-1.981v18.962h22.323V29.09H12.547V12.11z" fill="#fff"/><g clip-path="url(#clip1)"><path d="M44 36.76C44 40.76 40.781 44 36.811 44H7.189C3.218 44 0 40.759 0 36.76V7.24C0 3.24 3.218 0 7.189 0h29.622C40.781 0 44 3.241 44 7.24v29.52z" fill="#6671C1"/><path d="M26.605 26.689a3.993 3.993 0 11-5.646-5.648 3.993 3.993 0 015.646 5.648zm7.608-4.017a.537.537 0 00-.43-.525l-2.22-.553-.083-.022a.54.54 0 01-.331-.302c-.101-.287-.335-.802-.323-.778a.54.54 0 01.02-.449l.044-.075 1.178-1.96a.537.537 0 00-.066-.675l-1.688-1.687a.536.536 0 00-.675-.067l-1.96 1.179-.075.043a.54.54 0 01-.448.02c.02.01-.85-.345-.778-.322a.543.543 0 01-.303-.331l-.023-.084-.553-2.219a.537.537 0 00-.525-.431H22.59a.537.537 0 00-.511.38c-.007.016-.01.032-.013.051l-.553 2.219-.023.084a.542.542 0 01-.303.33c.082-.025-.853.362-.778.324a.544.544 0 01-.447-.021l-.075-.043-1.96-1.179a.536.536 0 00-.675.066l-1.689 1.688a.538.538 0 00-.065.675l1.177 1.96.044.075a.54.54 0 01.02.449c-.159.331-.348.858-.322.778a.537.537 0 01-.332.302l-.083.022-2.22.554a.536.536 0 00-.43.524v2.386a.536.536 0 00.43.525l2.22.553.083.022a.54.54 0 01.332.302c-.014-.044.339.811.322.78a.538.538 0 01-.02.447l-.044.075-1.177 1.96a.54.54 0 00.066.675l.843.844.844.843a.536.536 0 00.675.067l1.96-1.179.076-.043a.54.54 0 01.447-.02.54.54 0 011.081.653l.023.084.553 2.22a.537.537 0 00.524.431h2.387c.24 0 .443-.162.51-.38.007-.017.01-.033.013-.052l.553-2.219.023-.084a.54.54 0 01.298-.328c.274-.096.542-.21.806-.337l-.023.012a.544.544 0 01.448.02l.075.043 1.96 1.179a.536.536 0 00.676-.066l1.687-1.688a.537.537 0 00.066-.675l-1.178-1.96-.043-.075a.54.54 0 01-.021-.449l-.014.028c.128-.265.242-.535.338-.81a.54.54 0 01.33-.298l.084-.022 2.219-.554a.537.537 0 00.43-.524v-2.386z" fill="#fff"/><path d="M13.543 21.05l1.954-.49.09-.213-1.486-2.379a2.738 2.738 0 013.784-3.784l2.378 1.488.213-.092.49-1.953a1.649 1.649 0 011.173-1.255.362.362 0 00-.09-.366l-1.156-1.158a.37.37 0 00-.435-.066c-.008.005-.02.012-.03.016l-1.348.812-.05.027a.375.375 0 01-.309.019s-.53-.216-.537-.223a.365.365 0 01-.202-.23l-.016-.056-.382-1.524c0-.014-.005-.023-.01-.036a.367.367 0 00-.35-.26l-1.639-.003a.378.378 0 00-.35.264c-.002.012-.007.021-.007.035l-.382 1.524-.014.058a.386.386 0 01-.204.228c-.007.007-.5.209-.537.223a.375.375 0 01-.309-.019l-.052-.029-1.345-.807a.365.365 0 00-.463.046l-1.16 1.159a.367.367 0 00-.063.432c.004.009.008.018.018.032l.806 1.343.03.053c.052.093.055.21.019.309-.014.037-.217.53-.224.537a.387.387 0 01-.227.205l-.059.014-1.523.38c-.014 0-.023.006-.034.008a.377.377 0 00-.264.35l.002 1.64c0 .163.112.306.26.35.013.005.022.01.036.01l1.523.381.057.016a.36.36 0 01.23.203c.006.006.223.536.223.536.036.1.034.216-.018.309l-.028.05-.812 1.348-.015.03a.367.367 0 00.065.435l1.158 1.157c.1.1.24.127.366.088a1.646 1.646 0 011.255-1.173z" fill="#fff"/></g></g><defs><clipPath id="clip0"><path fill="#fff" d="M0 0h44v44H0z"/></clipPath><clipPath id="clip1"><path fill="#fff" d="M0 0h44v44H0z"/></clipPath></defs></svg>