<svg width="44" height="45" fill="none" xmlns="http://www.w3.org/2000/svg"><path d="M0 8a8 8 0 018-8h28a8 8 0 018 8v28a8 8 0 01-8 8H8a8 8 0 01-8-8V8z" fill="#3EA1E7"/><path d="M31.703 11c-8.857 0-11.262 15.308-15.964 15.308h-2.406v2.296h21.541V11h-3.171z" fill="#fff"/><path d="M11.296 11H9V32.978h25.874v-2.296H11.296V11z" fill="#fff"/><path fill-rule="evenodd" clip-rule="evenodd" d="M44 36.76C44 40.76 40.781 44 36.811 44H7.189C3.219 44 0 40.759 0 36.76V7.24C0 3.24 3.219 0 7.189 0h29.622C40.781 0 44 3.241 44 7.24v29.52z" fill="#70B0DC"/><path fill-rule="evenodd" clip-rule="evenodd" d="M19.734 20.102L16.998 22.8a.667.667 0 01-.951 0L14.7 21.45a.675.675 0 010-.953.67.67 0 01.952 0l.869.872 2.26-2.221a.67.67 0 01.952 0 .675.675 0 010 .954zm0 4.047l-2.736 2.7a.671.671 0 01-.951 0l-1.346-1.35a.675.675 0 010-.955.672.672 0 01.952 0l.869.873 2.26-2.222a.672.672 0 01.952 0 .675.675 0 010 .954zm2.988 4.83c-.915.213-1.655-.097-2.127-.693-.388-.489-.533-1.084-.366-1.807l1.423-3.699 6.353-6.368v-.628h-4.71a.673.673 0 01-.672-.674v-4.767H12.441a.673.673 0 00-.673.674v18.26h12.2v2.068c0 1.117.906 2.025 2.02 2.025a2.023 2.023 0 002.017-2.025v-5.393l-1.594 1.598-3.69 1.428zM32.994 17.134l-.951-.954c-.5-.5-1.404-.5-1.904 0l-1.148 1.151 2.854 2.863 1.149-1.152a1.351 1.351 0 000-1.908z" fill="#fff"/><path fill-rule="evenodd" clip-rule="evenodd" d="M22.326 27.685l2.648-1.025-2.433-2.439-1.021 2.655a.673.673 0 00.806.809zM23.281 23.056l2.855 2.862 4.757-4.77-2.854-2.862-4.758 4.77zM23.969 10.738v3.697h3.642l-3.642-3.697zM22.623 30.627H11.095c-.371 0-.672.346-.672.719v.675c0 .744.602 1.349 1.345 1.349h11.544a3.353 3.353 0 01-.689-2.024v-.72z" fill="#fff"/></svg>