<svg width="44" height="44" fill="none" xmlns="http://www.w3.org/2000/svg"><path d="M0 8a8 8 0 018-8h28a8 8 0 018 8v28a8 8 0 01-8 8H8a8 8 0 01-8-8V8z" fill="#E57E9B"/><path d="M31.703 11c-8.857 0-11.262 15.308-15.964 15.308h-2.406v2.296h21.541V11h-3.171z" fill="#fff"/><path d="M11.296 11H9V32.978h25.874v-2.296H11.296V11z" fill="#fff"/><g clip-path="url(#clip0)" fill-rule="evenodd" clip-rule="evenodd"><path d="M44 36.761c0 3.998-3.219 7.24-7.189 7.24H7.189C3.219 44 0 40.758 0 36.76V7.239C0 3.241 3.219 0 7.189 0h29.622C40.781 0 44 3.241 44 7.24V36.76z" fill="#E47E9B"/><path d="M29.484 23.09a.725.725 0 01-.726.725h-2.902a.725.725 0 01-.725-.725v-8.706c0-.401.325-.726.725-.726h2.902c.402 0 .726.325.726.726v8.706zm-5.804 0a.725.725 0 01-.725.725h-2.902a.725.725 0 01-.726-.725v-5.804c0-.401.324-.726.726-.726h2.902c.401 0 .725.325.725.726v5.804zm-1.45 5.079v-1.451h.233l.58 1.45h-.814zm-1.452 0h-.814l.58-1.451h.234v1.45zm-2.902-5.08a.725.725 0 01-.726.726h-2.902a.725.725 0 01-.726-.725v-2.903c0-.4.325-.725.726-.725h2.902c.402 0 .726.325.726.725v2.903zm15.284 2.177h-.725V12.11h.725a.725.725 0 100-1.45H22.23v-.726a.725.725 0 10-1.452 0v.725H9.848a.725.725 0 100 1.451h.725v13.156h-.726a.725.725 0 100 1.452h9.134l-2.505 6.26a.726.726 0 001.348.539l1.56-3.897h1.394v2.177a.725.725 0 101.451 0V29.62h1.395l1.56 3.897a.726.726 0 001.347-.539l-2.505-6.26h9.134a.725.725 0 100-1.452z" fill="#fff"/><path d="M26.582 22.364h1.451V15.11h-1.451v7.255zM20.778 22.364h1.452v-4.352h-1.452v4.352zM14.974 22.364h1.45v-1.451h-1.45v1.451z" fill="#fff"/></g><defs><clipPath id="clip0"><path fill="#fff" d="M0 0h44v44H0z"/></clipPath></defs></svg>