<svg width="44" height="44" fill="none" xmlns="http://www.w3.org/2000/svg"><path d="M0 8a8 8 0 018-8h28a8 8 0 018 8v28a8 8 0 01-8 8H8a8 8 0 01-8-8V8z" fill="#E57E9B"/><path d="M10.434 22.341h-1.64a.793.793 0 00-.794.794v11.166c0 .44.355.794.794.794h1.641a2.384 2.384 0 002.381-2.38v-7.992a2.385 2.385 0 00-2.382-2.382zM34.444 22.643a1.584 1.584 0 00-2.096.206l-4.287 5.334c-.302.318-.873.508-1.175.508h-5.34a.786.786 0 01-.794-.794c0-.445.349-.794.794-.794h4.816c.873 0 1.588-.714 1.588-1.588 0-.873-.714-1.588-1.588-1.588H22.15c-.396 0-.593-.251-.905-.524a5.27 5.27 0 00-1.572-.969 5.561 5.561 0 00-5.271.597v10.474h11.96c1.492 0 2.921-.767 3.81-1.958l4.604-6.668a1.594 1.594 0 00-.332-2.236z" fill="#fff"/><path d="M22.437 22.341h3.927c.574 0 1.103.171 1.569.439a8.693 8.693 0 002.4-5.995C30.332 11.97 26.363 8 21.548 8c-4.815 0-8.732 3.97-8.732 8.785 0 1.642.458 3.221 1.299 4.582a7.124 7.124 0 013.481-.924c1.688-.001 3.394.59 4.841 1.898zm-1.276-6.808c-1.144-.385-1.925-.919-1.925-1.957 0-.941.663-1.679 1.807-1.904v-1.015h1.048v.941c.716.032 1.198.182 1.551.353l-.31 1.208c-.278-.117-.769-.363-1.539-.363-.695 0-.92.299-.92.599 0 .353.374.577 1.283.919 1.273.449 1.786 1.037 1.786 2 0 .952-.674 1.764-1.903 1.979v1.09H20.99v-1.015c-.716-.032-1.411-.225-1.818-.46l.321-1.252c.449.246 1.08.471 1.775.471.609 0 1.026-.235 1.026-.663 0-.407-.342-.664-1.133-.931z" fill="#fff"/><g clip-path="url(#clip0)" fill-rule="evenodd" clip-rule="evenodd"><path d="M44 36.76c0 3.999-3.219 7.24-7.19 7.24H7.19C3.219 44 0 40.759 0 36.76V7.24C0 3.24 3.219 0 7.19 0h29.62C40.781 0 44 3.241 44 7.24v29.52z" fill="#E47E9B"/><path d="M18.13 11.637h8.649v-.514a.515.515 0 00-.514-.514H11.262a.514.514 0 00-.513.514v19.069c0 .284.23.514.513.514h.514V17.992c0-.564.238-1.14.644-1.554l4.157-4.158a2.209 2.209 0 011.554-.643z" fill="#fff"/><path d="M18.973 23.414a4.586 4.586 0 004.58 4.58 4.586 4.586 0 004.581-4.58 4.586 4.586 0 00-4.58-4.581 4.586 4.586 0 00-4.581 4.581z" fill="#fff"/><path d="M23.554 29.678a6.272 6.272 0 01-6.265-6.264 6.271 6.271 0 016.265-6.264c1.742 0 3.388.736 4.58 2.034v-5.35a.514.514 0 00-.513-.513h-8.648v4.67a.842.842 0 01-.841.842H13.46v12.714c0 .284.23.514.514.514H27.62a.49.49 0 00.356-.157l-2.53-2.531a6.08 6.08 0 01-1.893.305z" fill="#fff"/><path d="M33.207 31.382l-4.459-4.503a6.23 6.23 0 01-1.7 1.713l4.475 4.475c.225.226.524.35.842.35.318 0 .617-.124.842-.35a1.18 1.18 0 00.349-.842c0-.319-.124-.617-.349-.843zM17.29 17.15v-3.2l-3.2 3.2h3.2z" fill="#fff"/></g><defs><clipPath id="clip0"><path fill="#fff" d="M0 0h44v44H0z"/></clipPath></defs></svg>