<svg width="44" height="44" fill="none" xmlns="http://www.w3.org/2000/svg"><path d="M0 8a8 8 0 018-8h28a8 8 0 018 8v28a8 8 0 01-8 8H8a8 8 0 01-8-8V8z" fill="#77D4DB"/><path d="M14.907 35.418a5.907 5.907 0 100-11.814 5.907 5.907 0 000 11.814zM29.511 20.814a5.907 5.907 0 100-11.814 5.907 5.907 0 000 11.814zM11.735 15.827l1.594-1.41v4.745a1.585 1.585 0 103.17 0v-4.746l1.594 1.412c.301.267.677.398 1.05.398a1.585 1.585 0 001.051-2.771l-4.23-3.745-.01-.007c-.009-.008-.021-.014-.03-.022a1.572 1.572 0 00-.317-.202c-.016-.008-.027-.02-.043-.028-.016-.007-.033-.007-.049-.014a1.602 1.602 0 00-.386-.11c-.002 0-.004 0-.007-.002a1.583 1.583 0 00-.5.021 1.542 1.542 0 00-.345.104c-.013.005-.026.007-.038.013-.12.057-.232.134-.338.222-.012.01-.026.015-.038.025l-4.229 3.744a1.585 1.585 0 002.101 2.373zM33.92 25.102a1.584 1.584 0 00-2.241 0l-2.168 2.168-2.168-2.168a1.584 1.584 0 10-2.241 2.24l2.168 2.169-2.168 2.168a1.584 1.584 0 002.24 2.24l2.168-2.167 2.168 2.168a1.58 1.58 0 002.24 0 1.584 1.584 0 000-2.241L31.75 29.51l2.168-2.168a1.583 1.583 0 00.002-2.241z" fill="#fff"/><g clip-path="url(#clip0)" fill-rule="evenodd" clip-rule="evenodd"><path d="M44 36.76C44 40.76 40.781 44 36.811 44H7.189C3.218 44 0 40.759 0 36.76V7.24C0 3.24 3.218 0 7.189 0h29.622C40.781 0 44 3.241 44 7.24v29.52z" fill="#78D4DB"/><path d="M30.153 12.11c-7.641 0-9.717 13.207-13.774 13.207h-2.075v1.981H32.89V12.109h-2.736z" fill="#fff"/><path d="M12.547 12.11h-1.981v18.962h22.323V29.09H12.547V12.11z" fill="#fff"/></g><defs><clipPath id="clip0"><path fill="#fff" d="M0 0h44v44H0z"/></clipPath></defs></svg>