<svg width="44" height="44" fill="none" xmlns="http://www.w3.org/2000/svg"><path d="M0 8a8 8 0 018-8h28a8 8 0 018 8v28a8 8 0 01-8 8H8a8 8 0 01-8-8V8z" fill="#77D4DB"/><path d="M21.043 20.994a6.497 6.497 0 100-12.994 6.497 6.497 0 000 12.994zM21.729 23.422C14.702 23.422 9 28.628 9 35.045h25.459c0-6.417-5.702-11.623-12.73-11.623z" fill="#fff"/><g clip-path="url(#clip0)" fill-rule="evenodd" clip-rule="evenodd"><path d="M44 36.76c0 3.999-3.219 7.24-7.189 7.24H7.189C3.219 44 0 40.759 0 36.76V7.24C0 3.24 3.219 0 7.189 0h29.622C40.781 0 44 3.241 44 7.24v29.52z" fill="#78D4DB"/><path d="M13.15 11.696l6.447 6.448 4.655-2.443 7.775 15.255-1.375 1.375-6.449-6.449-4.654 2.444-7.774-15.255 1.374-1.375z" fill="#fff"/></g><defs><clipPath id="clip0"><path fill="#fff" d="M0 0h44v44H0z"/></clipPath></defs></svg>