<svg width="44" height="44" fill="none" xmlns="http://www.w3.org/2000/svg"><path d="M0 8a8 8 0 018-8h28a8 8 0 018 8v28a8 8 0 01-8 8H8a8 8 0 01-8-8V8z" fill="#77D4DB"/><path d="M14.907 35.418a5.907 5.907 0 100-11.814 5.907 5.907 0 000 11.814zM29.511 20.814a5.907 5.907 0 100-11.814 5.907 5.907 0 000 11.814zM11.735 15.827l1.594-1.41v4.745a1.585 1.585 0 103.17 0v-4.746l1.594 1.412c.301.267.677.398 1.05.398a1.585 1.585 0 001.051-2.771l-4.23-3.745-.01-.007c-.009-.008-.021-.014-.03-.022a1.572 1.572 0 00-.317-.202c-.016-.008-.027-.02-.043-.028-.016-.007-.033-.007-.049-.014a1.602 1.602 0 00-.386-.11c-.002 0-.004 0-.007-.002a1.583 1.583 0 00-.5.021 1.542 1.542 0 00-.345.104c-.013.005-.026.007-.038.013-.12.057-.232.134-.338.222-.012.01-.026.015-.038.025l-4.229 3.744a1.585 1.585 0 002.101 2.373zM33.92 25.102a1.584 1.584 0 00-2.241 0l-2.168 2.168-2.168-2.168a1.584 1.584 0 10-2.241 2.24l2.168 2.169-2.168 2.168a1.584 1.584 0 002.24 2.24l2.168-2.167 2.168 2.168a1.58 1.58 0 002.24 0 1.584 1.584 0 000-2.241L31.75 29.51l2.168-2.168a1.583 1.583 0 00.002-2.241z" fill="#fff"/><g clip-path="url(#clip0)" fill-rule="evenodd" clip-rule="evenodd"><path d="M44 36.76C44 40.76 40.781 44 36.811 44H7.189C3.218 44 0 40.759 0 36.76V7.24C0 3.24 3.218 0 7.189 0h29.622C40.781 0 44 3.241 44 7.24v29.52z" fill="#78D4DB"/><path d="M12.14 22.055h-1.415a.684.684 0 00-.685.685v9.634c0 .378.306.685.685.685h1.415a2.056 2.056 0 002.055-2.055V24.11a2.057 2.057 0 00-2.055-2.055zM32.855 22.316a1.366 1.366 0 00-1.808.178l-3.698 4.602c-.26.274-.754.439-1.014.439h-4.607a.679.679 0 01-.685-.686c0-.383.302-.684.685-.684h4.155c.753 0 1.37-.616 1.37-1.37 0-.754-.617-1.37-1.37-1.37H22.25c-.341 0-.512-.216-.781-.452a4.797 4.797 0 00-5.903-.321v9.037h10.318c1.287 0 2.52-.662 3.287-1.69l3.972-5.752a1.38 1.38 0 00-.287-1.931z" fill="#fff"/><path d="M21.395 16.182c-.988-.332-1.66-.793-1.66-1.689 0-.812.571-1.448 1.558-1.642v-.876h.905v.812c.617.027 1.033.157 1.337.304l-.268 1.043c-.24-.101-.663-.314-1.327-.314-.6 0-.794.258-.794.516 0 .305.323.499 1.107.794 1.098.387 1.54.895 1.54 1.725 0 .821-.58 1.522-1.641 1.707v.94h-.905v-.875c-.618-.029-1.218-.194-1.568-.397l.276-1.08c.389.213.933.406 1.533.406.525 0 .885-.203.885-.572 0-.35-.295-.572-.978-.802zm1.1 5.873h3.388c.495 0 .952.148 1.354.379a7.502 7.502 0 002.07-5.172c0-4.154-3.425-7.58-7.579-7.58s-7.533 3.426-7.533 7.58c0 1.416.395 2.778 1.12 3.952a6.146 6.146 0 013.004-.797c1.456 0 2.928.51 4.176 1.638z" fill="#fff"/></g><defs><clipPath id="clip0"><path fill="#fff" d="M0 0h44v44H0z"/></clipPath></defs></svg>