<svg width="44" height="44" fill="none" xmlns="http://www.w3.org/2000/svg"><path d="M0 8a8 8 0 018-8h28a8 8 0 018 8v28a8 8 0 01-8 8H8a8 8 0 01-8-8V8z" fill="#6671C1"/><path d="M21.043 20.994a6.497 6.497 0 100-12.994 6.497 6.497 0 000 12.994zM21.729 23.422C14.702 23.422 9 28.628 9 35.045h25.459c0-6.417-5.702-11.623-12.73-11.623z" fill="#fff"/><g clip-path="url(#clip0)" fill-rule="evenodd" clip-rule="evenodd"><path d="M44 36.76C44 40.76 40.781 44 36.811 44H7.189C3.219 44 0 40.759 0 36.76V7.24C0 3.24 3.219 0 7.189 0h29.622C40.781 0 44 3.241 44 7.24v29.52z" fill="#6671C1"/><path d="M15.601 22.574a5.096 5.096 0 100 10.192 5.096 5.096 0 000-10.192zM28.2 20.168a5.097 5.097 0 100-10.194 5.097 5.097 0 000 10.194zM12.864 15.864l1.375-1.217v4.094a1.367 1.367 0 002.735 0v-4.094l1.375 1.217c.26.23.584.343.906.343a1.368 1.368 0 00.907-2.39l-3.65-3.23-.008-.006c-.008-.007-.018-.012-.026-.02a1.337 1.337 0 00-.274-.174c-.013-.007-.023-.017-.036-.024-.014-.006-.029-.006-.042-.011a1.348 1.348 0 00-.334-.096h-.005a1.408 1.408 0 00-.433.017 1.34 1.34 0 00-.297.09l-.032.01c-.105.05-.201.116-.292.192-.01.009-.023.013-.033.022l-3.648 3.23a1.367 1.367 0 101.812 2.047zM32.004 23.866a1.367 1.367 0 00-1.933 0l-1.87 1.871-1.87-1.87a1.367 1.367 0 10-1.934 1.932l1.87 1.872-1.87 1.87a1.366 1.366 0 101.933 1.933l1.87-1.87 1.871 1.87a1.363 1.363 0 001.933 0c.534-.533.534-1.4 0-1.933l-1.87-1.87 1.87-1.872c.534-.533.534-1.399 0-1.933z" fill="#fff"/></g><defs><clipPath id="clip0"><path fill="#fff" d="M0 0h44v44H0z"/></clipPath></defs></svg>