<svg width="44" height="44" fill="none" xmlns="http://www.w3.org/2000/svg"><path d="M0 8a8 8 0 018-8h28a8 8 0 018 8v28a8 8 0 01-8 8H8a8 8 0 01-8-8V8z" fill="#E57E9B"/><path d="M17.556 10.191H27.58v-.596A.597.597 0 0026.984 9H9.595A.596.596 0 009 9.595v22.103c0 .328.267.595.595.595h.596V17.556c0-.653.275-1.321.746-1.801l4.818-4.818a2.56 2.56 0 011.801-.746z" fill="#fff"/><path d="M16.581 16.581v-3.709l-3.709 3.71h3.709zM18.532 23.841a5.316 5.316 0 005.31 5.31 5.316 5.316 0 005.31-5.31 5.316 5.316 0 00-5.31-5.309 5.316 5.316 0 00-5.31 5.309z" fill="#fff"/><path d="M23.842 31.102c-4.004 0-7.261-3.257-7.261-7.26 0-4.005 3.257-7.262 7.261-7.262 2.02 0 3.927.853 5.31 2.358v-6.2a.596.596 0 00-.595-.595H18.532v5.414a.977.977 0 01-.976.976h-5.413V33.27c0 .328.267.596.595.596h15.818a.566.566 0 00.413-.184l-2.932-2.933a7.078 7.078 0 01-2.195.353z" fill="#fff"/><path d="M35.031 33.078l-5.168-5.22a7.218 7.218 0 01-1.971 1.986l5.187 5.188c.261.26.608.405.977.405.368 0 .715-.144.976-.405.261-.26.404-.607.404-.976a1.376 1.376 0 00-.405-.978z" fill="#fff"/><g clip-path="url(#clip0)" fill-rule="evenodd" clip-rule="evenodd"><path d="M44 36.76C44 40.76 40.781 44 36.811 44H7.19C3.219 44 0 40.759 0 36.76V7.24C0 3.24 3.219 0 7.19 0H36.81C40.781 0 44 3.241 44 7.24v29.52z" fill="#E47E9B"/><path d="M33.665 17.88a.728.728 0 00-.916-.48.73.73 0 00-.48.916c.33 1.056.546 2.158.546 3.274 0 6.05-4.97 11.022-11.021 11.022-3.462 0-6.71-1.706-8.77-4.438h1.455a.73.73 0 100-1.463h-2.926a.731.731 0 00-.732.731v2.927a.73.73 0 001.464 0v-.804c2.34 2.782 5.813 4.51 9.509 4.51 6.856 0 12.484-5.628 12.484-12.485 0-1.265-.238-2.512-.613-3.71zM32.034 12.08a.731.731 0 00-.731.732v.803c-2.342-2.782-5.813-4.508-9.51-4.508-6.856 0-12.483 5.627-12.483 12.483 0 1.27.239 2.523.616 3.724a.732.732 0 001.396-.438c-.332-1.058-.55-2.164-.55-3.286 0-6.05 4.971-11.02 11.022-11.02 3.46 0 6.709 1.705 8.767 4.437h-1.453a.73.73 0 100 1.464h2.926a.731.731 0 00.731-.732v-2.927a.731.731 0 00-.731-.731z" fill="#fff"/><path d="M23.256 22.322h-1.462a.73.73 0 01-.732-.732v-2.925a.73.73 0 111.463 0v2.194h.731a.73.73 0 110 1.463zm3.192 2.89l1.525 1.524a8.012 8.012 0 001.83-4.414h-2.158a.731.731 0 110-1.463h2.158a8.01 8.01 0 00-1.83-4.413l-1.525 1.523a.729.729 0 01-1.033 0 .729.729 0 010-1.033l1.523-1.525a8.003 8.003 0 00-4.413-1.83v2.158a.731.731 0 11-1.463 0v-2.158a8.005 8.005 0 00-4.414 1.83l1.525 1.525a.73.73 0 11-1.035 1.033l-1.524-1.523a8.008 8.008 0 00-1.83 4.413h2.158a.731.731 0 110 1.463h-2.158a8.011 8.011 0 001.83 4.414l1.524-1.525a.732.732 0 011.035 1.035l-1.525 1.524a8.012 8.012 0 004.414 1.83v-2.158a.731.731 0 111.463 0V29.6a8.01 8.01 0 004.413-1.83l-1.523-1.524a.73.73 0 111.033-1.035z" fill="#fff"/></g><defs><clipPath id="clip0"><path fill="#fff" d="M0 0h44v44H0z"/></clipPath></defs></svg>