<svg width="44" height="44" fill="none" xmlns="http://www.w3.org/2000/svg"><path d="M0 8a8 8 0 018-8h28a8 8 0 018 8v28a8 8 0 01-8 8H8a8 8 0 01-8-8V8z" fill="#E57E9B"/><path d="M31.703 11c-8.857 0-11.262 15.308-15.964 15.308h-2.406v2.296h21.541V11h-3.171z" fill="#fff"/><path d="M11.296 11H9V32.978h25.874v-2.296H11.296V11z" fill="#fff"/><g clip-path="url(#clip0)" fill-rule="evenodd" clip-rule="evenodd"><path d="M44 36.76C44 40.76 40.781 44 36.811 44H7.189C3.219 44 0 40.759 0 36.76V7.24C0 3.24 3.219 0 7.189 0h29.622C40.781 0 44 3.241 44 7.24v29.52z" fill="#E47E9B"/><path d="M29.484 23.09a.725.725 0 01-.726.725h-2.902a.725.725 0 01-.725-.725v-8.706c0-.402.325-.726.725-.726h2.902c.402 0 .726.324.726.726v8.706zm-5.804 0a.725.725 0 01-.725.725h-2.902a.725.725 0 01-.726-.725v-5.804c0-.401.324-.726.726-.726h2.902c.401 0 .725.325.725.726v5.804zm-1.45 5.079v-1.452h.233l.58 1.452h-.814zm-1.452 0h-.814l.58-1.452h.234v1.452zm-2.902-5.08a.725.725 0 01-.726.726h-2.902a.725.725 0 01-.726-.725v-2.903c0-.4.325-.725.726-.725h2.902c.402 0 .726.325.726.725v2.903zm15.284 2.177h-.725V12.11h.725a.725.725 0 100-1.45H22.23v-.726a.725.725 0 10-1.452 0v.725H9.848a.725.725 0 100 1.451h.725v13.156h-.726a.725.725 0 100 1.451h9.134l-2.505 6.261a.726.726 0 001.348.539l1.56-3.897h1.394v2.176a.725.725 0 101.451 0V29.62h1.395l1.56 3.897a.726.726 0 001.347-.539l-2.505-6.26h9.134a.725.725 0 100-1.452z" fill="#fff"/><path d="M26.582 22.364h1.451v-7.255h-1.451v7.255zM20.778 22.364h1.452v-4.352h-1.452v4.352zM14.974 22.364h1.45v-1.451h-1.45v1.451z" fill="#fff"/><g clip-path="url(#clip1)"><path d="M44 36.76C44 40.76 40.781 44 36.811 44H7.189C3.219 44 0 40.759 0 36.76V7.24C0 3.24 3.219 0 7.189 0h29.622C40.781 0 44 3.241 44 7.24v29.52z" fill="#70B0DC"/><path d="M34.206 20.23h-2.424a.79.79 0 100 1.58h2.424a.79.79 0 000-1.58zM31.55 23.623a.79.79 0 10-1.118 1.119l1.581 1.58a.79.79 0 101.118-1.118l-1.581-1.58zM31.55 18.417l1.581-1.581a.79.79 0 10-1.118-1.118l-1.581 1.58a.79.79 0 101.118 1.119zM11.372 17.067h-.146c-1.744 0-3.215 1.418-3.215 3.163 0 1.743 1.471 3.161 3.215 3.161h.146a2.367 2.367 0 002.226 1.582h3.953v-9.487h-3.953c-1.03 0-1.9.663-2.226 1.58zM27.038 10.742c-.873 0-1.581.708-1.581 1.581v15.813a1.58 1.58 0 103.162 0V12.323c0-.873-.707-1.581-1.58-1.581zM12.808 26.474v4.034a2.374 2.374 0 002.371 2.371 2.374 2.374 0 002.372-2.371v-3.954h-3.953a3.97 3.97 0 01-.79-.08zM19.132 15.409v9.641c1.526.176 2.947.825 4.05 1.927l.694.695V12.787l-.695.694c-1.103 1.103-2.523 1.752-4.049 1.928z" fill="#fff"/></g></g><defs><clipPath id="clip0"><path fill="#fff" d="M0 0h44v44H0z"/></clipPath><clipPath id="clip1"><path fill="#fff" d="M0 0h44v44H0z"/></clipPath></defs></svg>