<svg width="44" height="44" fill="none" xmlns="http://www.w3.org/2000/svg"><path d="M0 8a8 8 0 018-8h28a8 8 0 018 8v28a8 8 0 01-8 8H8a8 8 0 01-8-8V8z" fill="#E57E9B"/><path d="M10.434 22.341h-1.64a.793.793 0 00-.794.794v11.166c0 .44.355.794.794.794h1.641a2.384 2.384 0 002.381-2.38v-7.992a2.385 2.385 0 00-2.382-2.382zM34.444 22.643a1.584 1.584 0 00-2.096.206l-4.287 5.334c-.302.318-.873.508-1.175.508h-5.34a.786.786 0 01-.794-.794c0-.445.349-.794.794-.794h4.816c.873 0 1.588-.714 1.588-1.588 0-.873-.714-1.588-1.588-1.588H22.15c-.396 0-.593-.251-.905-.524a5.27 5.27 0 00-1.572-.969 5.561 5.561 0 00-5.271.597v10.474h11.96c1.492 0 2.92-.767 3.81-1.958l4.604-6.668a1.594 1.594 0 00-.332-2.236z" fill="#fff"/><path d="M22.437 22.341h3.927c.574 0 1.103.171 1.569.439a8.693 8.693 0 002.4-5.995C30.332 11.97 26.363 8 21.548 8c-4.815 0-8.732 3.97-8.732 8.785 0 1.642.458 3.221 1.299 4.582a7.124 7.124 0 013.48-.924c1.689-.001 3.395.59 4.842 1.898zm-1.276-6.808c-1.144-.385-1.925-.919-1.925-1.957 0-.941.663-1.679 1.807-1.904v-1.015h1.048v.941c.716.032 1.198.182 1.55.353l-.31 1.208c-.277-.117-.768-.363-1.538-.363-.695 0-.92.299-.92.599 0 .353.374.577 1.283.919 1.273.449 1.786 1.037 1.786 2 0 .952-.674 1.764-1.903 1.979v1.09h-1.05v-1.015c-.715-.032-1.41-.225-1.817-.46l.32-1.252c.45.246 1.08.471 1.776.471.609 0 1.026-.235 1.026-.663 0-.407-.342-.664-1.133-.931z" fill="#fff"/><g clip-path="url(#clip0)" fill-rule="evenodd" clip-rule="evenodd"><path d="M44 36.76C44 40.76 40.781 44 36.811 44H7.189C3.219 44 0 40.759 0 36.76V7.24C0 3.24 3.219 0 7.189 0h29.622C40.781 0 44 3.241 44 7.24v29.52z" fill="#6671C1"/><path d="M17.156 13.247h5.499c.744 0 1.352-.608 1.352-1.352 0-.746-.608-1.353-1.352-1.353H21.34l-.16-.45a1.355 1.355 0 00-1.275-.902c-.572 0-1.084.362-1.276.902l-.16.45h-1.313c-.746 0-1.352.607-1.352 1.353 0 .744.606 1.352 1.352 1.352z" fill="#fff"/><path d="M25.837 18.457a.676.676 0 01-.956 0l-.199-.199v2.425a2.03 2.03 0 01-2.027 2.028h-5.5a.676.676 0 00-.675.675v2.243a2.025 2.025 0 011.352 1.904 2.03 2.03 0 01-2.028 2.028 2.03 2.03 0 01-2.028-2.027c0-.881.566-1.624 1.351-1.905v-2.243a2.03 2.03 0 012.029-2.027h5.499a.677.677 0 00.675-.677v-2.424l-.198.199a.676.676 0 11-.956-.956l1.352-1.352a.677.677 0 01.957 0l1.352 1.352a.676.676 0 010 .956zm-11.863-1.352a.676.676 0 11.956-.956l.874.874.874-.874a.676.676 0 11.956.956l-.874.874.874.874a.676.676 0 11-.956.955l-.874-.873-.874.873a.676.676 0 11-.956-.955l.874-.874-.874-.874zm12.737-5.21h-1.352a2.707 2.707 0 01-2.704 2.703h-5.5a2.707 2.707 0 01-2.703-2.704H13.1a2.03 2.03 0 00-2.028 2.028v16.315a2.03 2.03 0 002.028 2.029h13.61c1.119 0 2.03-.91 2.03-2.029V13.922a2.03 2.03 0 00-2.03-2.027zM32.785 14.746a2.144 2.144 0 00-2.147 2.146l-.002 11.017 2.164 3.005 2.128-3.005.002-11.017a2.15 2.15 0 00-2.145-2.146z" fill="#fff"/><path d="M15.804 26.857a.677.677 0 100 1.354.677.677 0 000-1.354z" fill="#fff"/></g><defs><clipPath id="clip0"><path fill="#fff" d="M0 0h44v44H0z"/></clipPath></defs></svg>