<svg width="44" height="44" fill="none" xmlns="http://www.w3.org/2000/svg"><path d="M0 8a8 8 0 018-8h28a8 8 0 018 8v28a8 8 0 01-8 8H8a8 8 0 01-8-8V8z" fill="#3EA1E7"/><path d="M10.434 22.341h-1.64a.793.793 0 00-.794.794v11.166c0 .44.355.794.794.794h1.641a2.384 2.384 0 002.381-2.38v-7.992a2.385 2.385 0 00-2.382-2.382zM34.444 22.643a1.584 1.584 0 00-2.096.206l-4.287 5.334c-.302.318-.873.508-1.175.508h-5.34a.786.786 0 01-.794-.794c0-.445.349-.794.794-.794h4.816c.873 0 1.588-.714 1.588-1.588 0-.873-.714-1.588-1.588-1.588H22.15c-.396 0-.593-.251-.905-.524a5.27 5.27 0 00-1.572-.969 5.561 5.561 0 00-5.271.597v10.474h11.96c1.492 0 2.921-.767 3.81-1.958l4.604-6.668a1.594 1.594 0 00-.332-2.236z" fill="#fff"/><path d="M22.437 22.341h3.927c.574 0 1.103.171 1.569.439a8.693 8.693 0 002.4-5.995C30.332 11.97 26.363 8 21.548 8c-4.815 0-8.732 3.97-8.732 8.785 0 1.642.458 3.221 1.299 4.582a7.124 7.124 0 013.481-.924c1.688-.001 3.394.59 4.841 1.898zm-1.276-6.808c-1.144-.385-1.925-.919-1.925-1.957 0-.941.663-1.679 1.807-1.904v-1.015h1.048v.941c.716.032 1.198.182 1.551.353l-.31 1.208c-.278-.117-.769-.363-1.539-.363-.695 0-.92.299-.92.599 0 .353.374.577 1.283.919 1.273.449 1.786 1.037 1.786 2 0 .952-.674 1.764-1.903 1.979v1.09H20.99v-1.015c-.716-.032-1.411-.225-1.818-.46l.321-1.252c.449.246 1.08.471 1.775.471.609 0 1.026-.235 1.026-.663 0-.407-.342-.664-1.133-.931z" fill="#fff"/><g clip-path="url(#clip0)" fill-rule="evenodd" clip-rule="evenodd"><path d="M44 36.76C44 40.76 40.781 44 36.81 44H7.19C3.219 44 0 40.759 0 36.76V7.24C0 3.24 3.219 0 7.19 0h29.62C40.781 0 44 3.241 44 7.24v29.52z" fill="#70B0DC"/><path d="M22.022 27.397l-5.895-5.894-.008.015.006-.01-.015.028-1.065 2.118a.69.69 0 00.127.802l3.896 3.896a.69.69 0 00.802.127l2.138-1.074c-.02.009-.042.02.014-.008zM33.923 10.268a.69.69 0 00-.666-.667c-1.793-.065-3.368.032-4.8.271l.013.804a4.435 4.435 0 004.379 4.379l.799.013c.239-1.432.337-3.007.275-4.8zM25.43 16.035c-.554 0-1.074.215-1.465.606a2.074 2.074 0 000 2.931c.783.783 2.148.783 2.93 0a2.074 2.074 0 00-1.465-3.537z" fill="#fff"/><path d="M27.872 20.549a3.443 3.443 0 01-2.442 1.01 3.446 3.446 0 01-2.442-1.01 3.46 3.46 0 010-4.885 3.459 3.459 0 014.884 0 3.458 3.458 0 010 4.885zm-.784-9.851l-.008-.535c-2.385.619-4.313 1.743-5.99 3.479-1.65 1.71-3.08 4.206-4.304 6.567l6.53 6.53c2.361-1.224 4.857-2.655 6.566-4.304 1.738-1.677 2.857-3.606 3.475-5.99l-.53-.009a5.81 5.81 0 01-5.738-5.738zM21.796 31.028c.001.514.544.848 1.003.617.127-.113 3.573-1.443 4.185-5.368-1.776 1.074-3.573 1.968-5.332 2.852l.144 1.899zM12.594 21.664l1.822.169c.899-1.79 1.797-3.59 2.88-5.372-4.035.56-5.362 4.076-5.477 4.204a.69.69 0 00.028.672c.224.364.601.298.747.327zM16.638 27.875l-2.442-2.442a2.071 2.071 0 01-.398-.568c-1.345 1.284-2.865 5.63-3.405 7.403a.693.693 0 00.86.862c1.786-.538 6.14-2.047 7.424-3.397a2.072 2.072 0 01-.585-.404l-1.454-1.454z" fill="#fff"/></g><defs><clipPath id="clip0"><path fill="#fff" d="M0 0h44v44H0z"/></clipPath></defs></svg>