<svg width="44" height="44" fill="none" xmlns="http://www.w3.org/2000/svg"><path d="M0 8a8 8 0 018-8h28a8 8 0 018 8v28a8 8 0 01-8 8H8a8 8 0 01-8-8V8z" fill="#E57E9B"/><path fill-rule="evenodd" clip-rule="evenodd" d="M43.81 36.322c0 3.876-3.205 7.018-7.158 7.018H7.158C3.205 43.34 0 40.198 0 36.322V7.704C0 3.83 3.205.687 7.158.687h29.494c3.953 0 7.158 3.142 7.158 7.017v28.618z" fill="#E47E9B"/><path fill-rule="evenodd" clip-rule="evenodd" d="M15.187 20.672l5.327-5.222-2.772-2.724a3.827 3.827 0 00-5.327 0 3.638 3.638 0 000 5.222l2.772 2.724zM28.6 23.379L23.275 28.6l2.812 2.756L32.5 32.38l-1.087-6.245L28.6 23.38zM27.685 11.127l-2.777 2.722 2.119 2.076-1.184 1.16-2.118-2.076-1.353 1.326 2.118 2.076-1.183 1.16-2.117-2.076-1.354 1.327 2.118 2.076-1.183 1.16-2.118-2.077-1.352 1.326 2.117 2.077-1.183 1.16-2.118-2.076-1.357 1.33 2.118 2.077-1.183 1.16-2.117-2.077L10.8 27.68l5.325 5.22L33.01 16.347l-5.325-5.22z" fill="#fff"/></svg>