<svg width="32" height="32" fill="none" xmlns="http://www.w3.org/2000/svg"><g clip-path="url(#clip0)" fill="#28C9D3"><path d="M24.955 25.218a3.078 3.078 0 01-2.382-.096 3.235 3.235 0 01-.411-.23 3.16 3.16 0 01-1.925 2.072 3.078 3.078 0 01-2.792-.326 3.16 3.16 0 01-1.927 2.072 3.077 3.077 0 01-2.383-.097 3.182 3.182 0 01-.41-.229 3.16 3.16 0 01-1.925 2.071 3.076 3.076 0 01-2.383-.097 3.14 3.14 0 01-1.639-1.802l-.883-2.466L-1 24.172V5.692c.227-.024.691-.042 1.785-.063.862-.016 1.74-.024 1.821-.024h8.102L7.84 8.52a4.283 4.283 0 000 5.975 4.078 4.078 0 002.921 1.229 4.088 4.088 0 002.922-1.23l2.94-2.991 2.837.656 5.092 2.646 2.273 6.349c.588 1.642-.25 3.464-1.87 4.063z"/><path d="M33 5.619v17.853h-5.114l.09-.686a4.228 4.228 0 00-.214-1.994l-2.41-6.732-5.555-2.887-3.417-.791a.125.125 0 00-.12.037l-3.277 3.332a3.106 3.106 0 01-2.223.935 3.113 3.113 0 01-2.223-.934 3.215 3.215 0 010-4.487l4.331-4.404a5.003 5.003 0 013.591-1.51h4.82a6.836 6.836 0 014.906 2.064l.2.204H33z"/></g><defs><clipPath id="clip0"><path d="M0 0h32v32H0V0z" fill="#fff"/></clipPath></defs></svg>