<svg width="32" height="32" fill="none" xmlns="http://www.w3.org/2000/svg"><g clip-path="url(#clip0)" fill="#EA3675"><path fill-rule="evenodd" clip-rule="evenodd" d="M20.757 17.63l-2.932 8.92c-.418 1.272-2.232 1.272-2.65 0l-2.932-8.92c-4.84 1.732-8.301 6.332-8.301 11.736V32h25.116v-2.634c0-5.404-3.46-10.005-8.301-11.736z"/><path d="M16.5 15.47c-3.468 0-6.28-2.792-6.28-6.235C10.22 5.792 13.033 3 16.5 3c3.468 0 6.28 2.792 6.28 6.235 0 3.444-2.812 6.235-6.28 6.235zM14.19 17.107c.094.54.377 1.031.8 1.385a2.354 2.354 0 003.02 0c.423-.354.706-.844.8-1.386a12.796 12.796 0 00-4.62 0z"/><path d="M14.626 27.747h3.748l-.73-9.522h-2.288l-.73 9.522z"/></g><defs><clipPath id="clip0"><path d="M0 0h32v32H0V0z" fill="#fff"/></clipPath></defs></svg>