<svg width="32" height="32" fill="none" xmlns="http://www.w3.org/2000/svg"><g clip-path="url(#clip0)"><g clip-path="url(#clip1)" fill="#328FD0"><path d="M15.534 12.328c2.875 0 5.206-2.313 5.206-5.166s-2.331-5.165-5.206-5.165c-2.876 0-5.207 2.312-5.207 5.165s2.331 5.166 5.207 5.166zM6.446 13.954c2.056 0 3.723-1.654 3.723-3.694S8.502 6.567 6.446 6.567 2.724 8.22 2.724 10.26c0 2.04 1.666 3.694 3.722 3.694zM24.555 13.954c2.056 0 3.723-1.654 3.723-3.694s-1.666-3.693-3.723-3.693c-2.055 0-3.722 1.654-3.722 3.693 0 2.04 1.667 3.694 3.723 3.694zM4.134 23.985c0-3.613 1.707-6.83 4.366-8.903a7.492 7.492 0 00-3.423-.16C1.619 15.562-1 18.57-1 22.186v7.53h5.134v-5.732zM25.925 14.924a7.598 7.598 0 00-3.375.146c2.667 2.07 4.383 5.294 4.383 8.915v5.732H32v-7.531c0-3.616-2.617-6.625-6.075-7.262z"/><path d="M25.946 23.84v7.157H5.122v-7.158c0-5.056 3.66-9.264 8.497-10.156a10.586 10.586 0 013.83 0c4.835.892 8.497 5.1 8.497 10.156z"/></g></g><defs><clipPath id="clip0"><path d="M0 0h32v32H0V0z" fill="#fff"/></clipPath><clipPath id="clip1"><path fill="#fff" d="M-1 2h33v29H-1z"/></clipPath></defs></svg>