<svg width="172" height="39" fill="none" xmlns="http://www.w3.org/2000/svg"><path d="M1.021 14.4l15.5.003 9.426.002V5.199L1.021 14.4z" fill="#FF9D28"/><path d="M25.947 5.199V37.7L37.72.85 25.947 5.2z" fill="#68C5ED"/><path d="M25.947 14.404l-9.425-.001L25.947 37.7V14.404z" fill="#044D80"/><path d="M1.021 14.4l17.918 5.981-2.417-5.978-15.5-.003z" fill="#E54747"/><path d="M58.123 29.145c-.137.135-.365.303-.683.505a7.536 7.536 0 01-1.246.606c-.512.202-1.139.375-1.878.522-.74.145-1.588.218-2.544.218-1.843 0-3.437-.292-4.78-.875-1.343-.583-2.453-1.397-3.328-2.44-.877-1.044-1.52-2.277-1.93-3.703-.41-1.425-.614-2.99-.614-4.696 0-1.704.222-3.281.666-4.729.444-1.447 1.11-2.698 1.997-3.753.888-1.054 1.997-1.88 3.329-2.474 1.331-.594 2.896-.892 4.694-.892.888 0 1.69.079 2.408.236.717.157 1.342.342 1.877.555.535.214.979.438 1.332.673.352.236.62.433.802.59.205.18.381.392.53.639.147.247.221.516.221.808 0 .449-.17.897-.512 1.346-.341.45-.717.864-1.127 1.246-.273-.27-.58-.544-.921-.825a6.244 6.244 0 00-1.144-.74 7.652 7.652 0 00-1.434-.54 6.82 6.82 0 00-1.792-.218c-1.161 0-2.134.23-2.92.69a5.567 5.567 0 00-1.894 1.801c-.478.74-.82 1.588-1.025 2.541a13.832 13.832 0 00-.307 2.912c0 1.055.102 2.065.307 3.03.205.964.558 1.817 1.059 2.557.5.74 1.155 1.336 1.963 1.784.807.45 1.815.674 3.021.674.637 0 1.224-.079 1.759-.236a7.101 7.101 0 002.492-1.279c.307-.247.563-.46.768-.64.137.158.296.349.478.573.184.226.355.462.512.707.16.247.296.493.41.74.114.247.17.471.17.673 0 .292-.056.539-.17.74a3.216 3.216 0 01-.546.674zm17.595-2.581c0 1.783.262 3.081.79 3.894a6.83 6.83 0 01-1.151.338 5.936 5.936 0 01-1.117.102c-.824 0-1.448-.158-1.871-.474-.424-.316-.693-.767-.808-1.355-.504.52-1.168.96-1.992 1.321-.824.36-1.832.542-3.022.542a7.039 7.039 0 01-1.855-.253 4.9 4.9 0 01-1.683-.827c-.504-.383-.916-.895-1.237-1.536-.32-.641-.48-1.423-.48-2.346 0-1.147.28-2.082.841-2.801a5.975 5.975 0 012.113-1.705 9.664 9.664 0 012.747-.86 26.49 26.49 0 012.714-.305c.275-.022.543-.034.807-.034h.738v-.616c0-.868-.235-1.484-.704-1.85-.47-.365-1.23-.548-2.284-.548-.985 0-1.86.159-2.627.474a21.61 21.61 0 00-2.25 1.084 4.954 4.954 0 01-.773-1.27c-.195-.462-.292-.807-.292-1.033 0-.316.177-.62.532-.914.355-.293.842-.559 1.46-.796a12.032 12.032 0 012.13-.575 14.11 14.11 0 012.541-.22c1.237 0 2.285.124 3.143.372.859.249 1.557.632 2.096 1.151.537.52.921 1.169 1.15 1.947.229.78.344 1.688.344 2.726v6.367zm-4.397-3.928h-.48c-.161 0-.322.011-.482.034-.572.045-1.14.112-1.7.202-.561.091-1.06.249-1.494.475-.435.226-.79.52-1.065.88-.275.361-.412.824-.412 1.389 0 .632.183 1.168.55 1.608.365.44.984.66 1.854.66a4.4 4.4 0 001.237-.17c.389-.112.732-.258 1.03-.44a2.65 2.65 0 00.704-.592c.172-.214.258-.412.258-.592v-3.454zm12.949-6.672c.365-.428.936-.863 1.712-1.303.776-.44 1.757-.66 2.944-.66.845 0 1.65.14 2.415.423.764.282 1.443.74 2.037 1.371.593.632 1.067 1.468 1.421 2.506.354 1.039.53 2.314.53 3.826 0 1.761-.205 3.212-.616 4.352-.41 1.14-.941 2.043-1.591 2.71-.651.665-1.376 1.134-2.175 1.404-.799.271-1.598.407-2.397.407-.662 0-1.238-.074-1.729-.22a6.979 6.979 0 01-1.25-.491c-.342-.18-.605-.361-.787-.542a3.227 3.227 0 01-.342-.373v8.324H79.77V14.474a8.424 8.424 0 01.9-.118c.185-.011.404-.017.658-.017.76 0 1.407.124 1.938.372.53.25.865.667 1.004 1.253zm6.182 6.265c0-.677-.057-1.309-.17-1.896-.114-.587-.302-1.095-.564-1.524a2.725 2.725 0 00-1.059-1c-.444-.236-.985-.355-1.622-.355-.956 0-1.622.181-1.998.542-.375.362-.563.757-.563 1.186v7.178c.182.181.506.396.973.644.467.248 1.007.372 1.622.372 1.161 0 2.015-.45 2.562-1.354.546-.903.82-2.167.82-3.793zm8.483 5.825a5.815 5.815 0 01-.309-1.423 16.102 16.102 0 01-.069-1.49V9.43c.16-.022.332-.045.516-.068a7.04 7.04 0 01.515-.05c.183-.012.366-.018.549-.018.366 0 .733.034 1.099.102.366.068.698.203.997.406.297.203.537.48.721.83.183.35.274.807.274 1.371v2.404h4.809v3.42h-4.809v7.222c0 1.575.653 2.362 1.958 2.362.321 0 .624-.05.911-.152.286-.102.543-.214.772-.339.229-.124.43-.254.602-.39a4.85 4.85 0 00.36-.304c.344.497.607.927.79 1.29.183.364.275.705.275 1.023 0 .297-.12.588-.361.872-.24.285-.578.547-1.013.787-.435.239-.962.432-1.58.58a8.69 8.69 0 01-2.027.223c-1.42 0-2.524-.271-3.314-.813a4.33 4.33 0 01-1.666-2.133zm20.933-.44c.574 0 1.08-.063 1.517-.187a6.122 6.122 0 001.172-.457c.344-.18.643-.378.896-.592.253-.215.482-.412.69-.593.275.338.562.773.861 1.303.299.531.448.966.448 1.304 0 .497-.286.948-.858 1.355-.481.361-1.163.672-2.044.93-.882.26-1.918.39-3.109.39-1.076 0-2.135-.135-3.177-.406a7.059 7.059 0 01-2.782-1.422c-.813-.677-1.472-1.586-1.975-2.726-.504-1.14-.756-2.579-.756-4.318 0-1.422.224-2.646.67-3.674.447-1.027 1.042-1.88 1.786-2.557a7.071 7.071 0 012.525-1.49 8.988 8.988 0 012.885-.474c1.282 0 2.37.198 3.263.593.893.395 1.62.926 2.181 1.592a6.232 6.232 0 011.219 2.285c.252.858.378 1.761.378 2.71v.473c0 .181-.006.373-.017.576l-.034.593a3.493 3.493 0 01-.052.457h-10.132c.091 1.242.482 2.274 1.171 3.099.689.824 1.781 1.235 3.274 1.235zm1.565-6.875c0-1.084-.213-1.964-.639-2.641-.426-.677-1.192-1.016-2.297-1.016-.945 0-1.699.322-2.263.965-.564.643-.846 1.54-.846 2.692h6.045zm12.354-4.689c.138-.202.321-.425.55-.672.228-.246.509-.47.841-.672.332-.201.699-.37 1.1-.504.4-.134.829-.202 1.288-.202.274 0 .566.023.875.068.31.045.596.129.859.251.263.124.475.291.636.504.16.213.24.476.24.79 0 .492-.126 1.057-.378 1.696-.252.64-.504 1.184-.755 1.636a5.107 5.107 0 00-1.168-.729c-.39-.169-.848-.254-1.374-.254-.71 0-1.305.204-1.786.612-.481.407-.722.894-.722 1.46v10.962h-4.671V14.474a8.42 8.42 0 01.893-.118c.183-.011.401-.017.653-.017.732 0 1.368.14 1.906.42.538.279.876.71 1.013 1.291zm13.281 0c.138-.202.321-.425.55-.672a3.88 3.88 0 01.842-.672c.331-.201.698-.37 1.099-.504.4-.134.829-.202 1.288-.202.274 0 .566.023.875.068.309.045.596.129.859.251.263.124.475.291.636.504.16.213.24.476.24.79 0 .492-.126 1.057-.378 1.696-.252.64-.504 1.184-.755 1.636a5.107 5.107 0 00-1.168-.729c-.39-.169-.848-.254-1.374-.254-.71 0-1.305.204-1.786.612-.481.407-.721.894-.721 1.46v10.962h-4.672V14.474a8.482 8.482 0 01.893-.118c.183-.011.401-.017.653-.017.733 0 1.368.14 1.906.42.538.279.876.71 1.013 1.291zm22.292 10.514c0 1.783.263 3.081.79 3.894-.412.158-.796.27-1.15.338a5.932 5.932 0 01-1.116.102c-.825 0-1.449-.158-1.872-.474-.425-.316-.693-.767-.808-1.355-.504.52-1.168.96-1.992 1.321-.824.36-1.832.542-3.022.542a7.035 7.035 0 01-1.855-.253 4.89 4.89 0 01-1.683-.827c-.504-.383-.916-.895-1.237-1.536-.321-.641-.481-1.423-.481-2.346 0-1.147.28-2.082.842-2.801a5.978 5.978 0 012.112-1.705 9.664 9.664 0 012.748-.86 26.466 26.466 0 012.714-.305c.274-.022.543-.034.807-.034h.738v-.616c0-.868-.235-1.484-.704-1.85-.47-.365-1.231-.548-2.284-.548-.985 0-1.861.159-2.628.474-.767.317-1.517.678-2.249 1.084a4.949 4.949 0 01-.773-1.27c-.195-.462-.292-.807-.292-1.033 0-.316.177-.62.532-.914.355-.293.842-.559 1.46-.796a12.034 12.034 0 012.129-.575c.802-.147 1.649-.22 2.542-.22 1.237 0 2.284.124 3.143.372.859.249 1.557.632 2.095 1.151.538.52.922 1.169 1.151 1.947.228.78.343 1.688.343 2.726v6.367zm-4.396-3.928h-.481c-.161 0-.321.011-.481.034-.572.045-1.139.112-1.7.202a4.925 4.925 0 00-1.494.475c-.435.226-.79.52-1.065.88-.275.361-.412.824-.412 1.389 0 .632.183 1.168.549 1.608.366.44.985.66 1.855.66.435 0 .847-.056 1.237-.17.389-.112.732-.258 1.03-.44.297-.18.533-.377.704-.592.172-.214.258-.412.258-.592v-3.454z" fill="#044D80"/></svg>