<svg width="28" height="28" fill="none" xmlns="http://www.w3.org/2000/svg"><path d="M0 4a4 4 0 014-4h20a4 4 0 014 4v20a4 4 0 01-4 4H4a4 4 0 01-4-4V4z" fill="#5EA8DB"/><path d="M9.578 22c1.975 0 3.577-1.702 3.577-3.801 0-2.1-1.602-3.801-3.577-3.801-1.976 0-3.578 1.701-3.578 3.8C6 20.299 7.602 22 9.578 22zM18.422 12.602c1.976 0 3.578-1.702 3.578-3.8C22 6.701 20.398 5 18.422 5c-1.975 0-3.577 1.702-3.577 3.801 0 2.1 1.602 3.801 3.577 3.801zM7.656 9.393l.966-.908v3.054c0 .563.43 1.02.96 1.02s.96-.456.96-1.02V8.485l.965.909c.183.172.41.256.636.256.265 0 .53-.116.719-.344a1.065 1.065 0 00-.082-1.44l-2.562-2.41c-.002-.001-.005-.002-.006-.004l-.018-.014a.949.949 0 00-.193-.13c-.01-.005-.016-.013-.026-.018-.01-.004-.02-.004-.03-.009a.927.927 0 00-.233-.07l-.004-.002a.903.903 0 00-.303.014.893.893 0 00-.209.067c-.008.003-.016.004-.023.008a.983.983 0 00-.205.143l-.023.016-2.561 2.41a1.065 1.065 0 00-.082 1.439.921.921 0 001.354.087zM21.093 15.362a.92.92 0 00-1.358 0l-1.313 1.395-1.313-1.395a.92.92 0 00-1.357 0 1.065 1.065 0 000 1.442l1.313 1.395-1.313 1.395a1.065 1.065 0 000 1.442.93.93 0 00.678.299c.246 0 .492-.1.679-.299l1.313-1.395 1.313 1.395a.929.929 0 00.678.299c.245 0 .491-.1.678-.299a1.065 1.065 0 000-1.442l-1.313-1.395 1.314-1.395a1.064 1.064 0 000-1.442z" fill="#fff"/></svg>