<svg width="1374" height="1752" fill="none" xmlns="http://www.w3.org/2000/svg"><path fill-rule="evenodd" clip-rule="evenodd" d="M1295.48 40.084c-26.26-19.156-63.29-16.88-87 6.827-26.22 26.225-26.22 68.743 0 94.968 26.23 26.225 68.75 26.225 94.97 0 23.71-23.707 25.99-60.73 6.83-86.995l-15.7 15.702c10.8 17.483 8.62 40.713-6.54 55.876-17.71 17.71-46.43 17.71-64.14 0s-17.71-46.424 0-64.134c15.16-15.164 38.39-17.344 55.88-6.542l15.7-15.702zM639.219 418.662c54.657 39.866 131.706 35.13 181.043-14.207 54.576-54.576 54.576-143.061 0-197.637-54.576-54.576-143.061-54.576-197.637 0-49.337 49.337-54.073 126.387-14.207 181.044l32.677-32.677c-22.48-36.384-17.942-84.727 13.614-116.283 36.857-36.856 96.613-36.856 133.469 0 36.857 36.857 36.857 96.613 0 133.469-31.556 31.556-79.898 36.094-116.283 13.615l-32.676 32.676zM310.662 974.862c39.866-54.657 35.13-131.706-14.207-181.044-54.576-54.575-143.061-54.575-197.637 0-54.575 54.576-54.575 143.061 0 197.637 49.338 49.335 126.387 54.075 181.044 14.205l-32.677-32.674c-36.384 22.479-84.727 17.941-116.283-13.615-36.856-36.856-36.856-96.612 0-133.469 36.857-36.856 96.613-36.856 133.469 0 31.556 31.556 36.094 79.899 13.615 116.283l32.676 32.677zM1052.29 1510.58c-24.36 63.11.16 136.31 60.58 171.2 66.85 38.59 152.32 15.69 190.91-51.15 38.59-66.85 15.69-152.32-51.15-190.91-60.43-34.88-136.08-19.52-178.56 33.14l40.02 23.1c29.33-31.13 77.2-39.26 115.85-16.94 45.14 26.06 60.6 83.78 34.54 128.92-26.06 45.14-83.78 60.6-128.92 34.54-38.65-22.31-55.54-67.83-43.25-108.79l-40.02-23.11zM774.018 1360.98c20.082-27.53 17.697-66.35-7.157-91.2-27.493-27.49-72.068-27.49-99.561 0-27.493 27.49-27.493 72.07 0 99.56 24.854 24.86 63.668 27.24 91.202 7.16l-16.461-16.46c-18.329 11.32-42.682 9.04-58.578-6.86-18.567-18.57-18.567-48.67 0-67.24 18.566-18.56 48.669-18.56 67.235 0 15.897 15.9 18.183 40.25 6.859 58.58l16.461 16.46zM722.666 654.265c-23.762-17.331-57.258-15.272-78.706 6.176-23.726 23.726-23.726 62.194 0 85.92s62.193 23.726 85.919 0c21.449-21.449 23.508-54.945 6.177-78.706l-14.206 14.206c9.773 15.817 7.8 36.833-5.919 50.552-16.022 16.023-42 16.023-58.023 0-16.023-16.023-16.023-42.001 0-58.024 13.718-13.718 34.735-15.691 50.552-5.919l14.206-14.205z" fill="#F8F9FA"/></svg>