<svg width="172" height="39" fill="none" xmlns="http://www.w3.org/2000/svg"><path d="M99.306 11.632h-5.378c.146-.845.666-1.316 1.722-1.852l.991-.504c1.771-.91 2.714-1.933 2.714-3.607 0-1.056-.407-1.885-1.219-2.486-.796-.601-1.77-.894-2.892-.894a4.49 4.49 0 00-2.454.699c-.73.455-1.283 1.04-1.624 1.771l1.56 1.56c.6-1.219 1.478-1.82 2.632-1.82.975 0 1.576.504 1.576 1.203 0 .585-.293 1.072-1.414 1.64l-.633.31c-1.382.698-2.34 1.494-2.893 2.404-.552.894-.828 2.047-.828 3.429v.373h8.14v-2.226zm-.719 4.797h-8.906l-4.453 7.713h8.906l4.453 7.712 4.453-7.712-4.453-7.713z" fill="#FF492C"/><path d="M85.996 29.283c-5.67 0-10.283-4.613-10.283-10.283 0-5.67 4.613-10.283 10.283-10.283l3.52-7.368a18.08 18.08 0 00-3.52-.345C76.057 1.004 68 9.061 68 19c0 9.939 8.057 17.996 17.996 17.996 3.963 0 7.625-1.282 10.598-3.452l-3.898-6.752a10.236 10.236 0 01-6.7 2.491z" fill="#FF492C"/></svg>