<svg width="103" height="27" fill="none" xmlns="http://www.w3.org/2000/svg"><path d="M28.457 23.514c-2.556 0-4.544-1.349-4.676-3.525h2.491c.197 1.175 1.18 1.61 2.25 1.61h.495c1.045-.001 1.763-.415 1.763-1.153 0-.74-.48-1.153-1.617-1.436l-2.28-.478c-1.878-.479-2.796-1.697-2.796-3.285 0-.986.47-1.795 1.289-2.33.698-.457 1.648-.716 2.775-.716h.494c1.046.001 1.95.259 2.647.716a3.326 3.326 0 011.52 2.547H30.41c-.218-.913-.939-1.348-1.79-1.348h-.49c-.917 0-1.595.413-1.595 1.109s.547 1.066 1.464 1.305l2.324.479c1.966.5 2.905 1.631 2.905 3.285 0 2.108-1.832 3.218-4.277 3.22h-.493zM40.996 23.513c-3.32 0-5.724-2.523-5.724-5.656 0-3.132 2.403-5.656 5.724-5.656 2.885 0 4.96 1.784 5.55 4.199h-2.534c-.437-1.175-1.508-2.023-3.016-2.023-1.944 0-3.277 1.457-3.277 3.48 0 2.023 1.333 3.48 3.277 3.48 1.508 0 2.579-.848 3.016-2.022h2.534c-.59 2.415-2.665 4.198-5.55 4.198zM53.596 12.201c1.573 0 2.884.805 3.495 1.675V12.42h2.404v10.877H57.09v-1.458c-.611.87-1.922 1.675-3.495 1.675-2.994 0-5.266-2.545-5.266-5.656 0-3.11 2.272-5.656 5.266-5.656zm.437 2.176c-1.945 0-3.256 1.522-3.256 3.48s1.31 3.48 3.255 3.48c1.945 0 3.256-1.522 3.256-3.48s-1.31-3.48-3.255-3.48zM61.918 6.98h2.404v16.316h-2.404V6.98zM72.232 23.513c-3.255 0-5.593-2.393-5.593-5.656 0-3.22 2.25-5.656 5.615-5.656 3.343 0 5.68 2.545 5.462 6.244H69.02c.088 1.653 1.355 2.958 3.3 2.958 1.201 0 2.25-.478 2.753-1.523h2.512c-.612 2.045-2.578 3.633-5.353 3.633zm-3.124-6.765h6.03c-.371-1.762-1.617-2.545-2.95-2.545-1.507 0-2.753.87-3.08 2.545zM90.99 17.505a5.63 5.63 0 00-1.959-3.936l.014-.014a5.686 5.686 0 00-4.604-1.294c-.031.004-.062.01-.093.016a5.67 5.67 0 00-1.233.358l-.022.01a5.66 5.66 0 00-3.454 5.127l.02-.001a5.625 5.625 0 001.661 4.07 5.683 5.683 0 004.765 1.604v.01a5.668 5.668 0 001.591-.458l.027-.013c.143-.066.283-.137.42-.213l.11-.066a5.731 5.731 0 00.659-.458c.05-.041.103-.077.153-.12l-.005-.005a5.637 5.637 0 001.95-4.617zm-8.085 2.758a3.418 3.418 0 01.753-5.41c.02-.012.042-.022.063-.033.067-.035.134-.07.202-.1.046-.02.093-.038.14-.056.045-.018.09-.037.135-.052a3.42 3.42 0 01.239-.072c.014-.004.029-.01.043-.013a3.439 3.439 0 014.272 3.114 3.424 3.424 0 01-1.639 3.13l-.01.005a3.437 3.437 0 01-.381.197l-.106.046a3.454 3.454 0 01-3.711-.756z" fill="#fff"/><path fill-rule="evenodd" clip-rule="evenodd" d="M18.847 2.16a5.3 5.3 0 013.751 1.546 5.265 5.265 0 010 7.47 5.313 5.313 0 01-6.552.746l1.921-1.913a2.716 2.716 0 10.88-5.283 2.715 2.715 0 00-2.578 3.59l-1.923 1.914a5.263 5.263 0 01.75-6.524 5.3 5.3 0 013.75-1.547zm-6.625 19.3a5.237 5.237 0 00.748-6.476l2.32-2.31a8.43 8.43 0 01-.79 11.055 8.487 8.487 0 01-6.006 2.477 8.487 8.487 0 01-6.006-2.477 8.432 8.432 0 010-11.96A8.486 8.486 0 018.494 9.29c1.796 0 3.591.565 5.096 1.692l-2.318 2.308a5.25 5.25 0 00-2.778-.791 5.248 5.248 0 00-3.727 1.537 5.239 5.239 0 000 7.423 5.249 5.249 0 003.727 1.538 5.249 5.249 0 003.728-1.538z" fill="url(#paint0_linear)"/><defs><linearGradient id="paint0_linear" x1="14.901" y1="24.356" x2="2.09" y2="10.659" gradientUnits="userSpaceOnUse"><stop stop-color="#E46074"/><stop offset="1" stop-color="#DA354C"/></linearGradient></defs></svg>