<svg width="122" height="36" fill="none" xmlns="http://www.w3.org/2000/svg"><path fill-rule="evenodd" clip-rule="evenodd" d="M85.527 9.263H82.33v21.791h3.196V9.263zM31.62 26.638c.175 2.906 2.819 4.707 6.218 4.707h.655c3.25-.002 5.688-1.484 5.688-4.3 0-2.209-1.25-3.72-3.864-4.388l-3.09-.64c-1.22-.32-1.946-.813-1.946-1.743 0-.93.9-1.482 2.121-1.482h.651c1.132.001 2.09.582 2.38 1.802h3.195c-.129-1.453-.86-2.638-2.021-3.403-.927-.61-2.129-.954-3.52-.955h-.657c-1.497 0-2.761.345-3.69.955-1.087.715-1.713 1.795-1.713 3.113 0 2.12 1.22 3.748 3.719 4.387l3.03.64c1.511.377 2.15.93 2.15 1.917 0 .986-.954 1.538-2.344 1.54h-.657c-1.424 0-2.731-.581-2.993-2.15h-3.311zm15.28-2.848c0 4.185 3.195 7.555 7.61 7.555 3.836 0 6.596-2.383 7.38-5.608h-3.37c-.581 1.57-2.005 2.702-4.01 2.702-2.585 0-4.357-1.946-4.357-4.649 0-2.702 1.772-4.648 4.358-4.648 2.005 0 3.428 1.133 4.009 2.702h3.37c-.784-3.225-3.544-5.608-7.38-5.608-4.415 0-7.61 3.37-7.61 7.554zm24.363-7.554c2.092 0 3.835 1.075 4.649 2.237v-1.947h3.195v14.528h-3.195v-1.946c-.814 1.162-2.557 2.237-4.649 2.237-3.98 0-7.001-3.4-7.001-7.555 0-4.154 3.021-7.554 7.001-7.554zm.581 2.906c-2.585 0-4.328 2.034-4.328 4.648 0 2.616 1.743 4.65 4.328 4.65 2.586 0 4.329-2.035 4.329-4.65 0-2.614-1.743-4.648-4.329-4.648zm24.2 12.203c-4.329 0-7.437-3.196-7.437-7.555 0-4.3 2.992-7.554 7.466-7.554 4.445 0 7.554 3.4 7.263 8.34H91.774c.117 2.207 1.802 3.95 4.387 3.95 1.598 0 2.993-.639 3.66-2.033h3.342c-.814 2.73-3.428 4.852-7.118 4.852zm-4.155-9.036h8.019c-.494-2.354-2.15-3.4-3.922-3.4-2.005 0-3.66 1.162-4.097 3.4zm26.385-4.232a7.534 7.534 0 012.604 5.258 7.545 7.545 0 01-2.592 6.167l.006.006c-.039.035-.08.066-.121.097a2.7 2.7 0 00-.082.063c-.075.06-.15.12-.226.177a7.925 7.925 0 01-.651.436l-.051.03-.096.057c-.18.102-.367.197-.557.285l-.019.009-.016.008c-.658.3-1.368.51-2.116.611l-.001-.013a7.537 7.537 0 01-6.335-2.142 7.532 7.532 0 01-2.21-5.436l-.025.001a7.559 7.559 0 014.592-6.848l.014-.007a7.592 7.592 0 011.7-.493l.078-.013a7.537 7.537 0 016.122 1.729l-.018.018zm-8.146 2.472a4.58 4.58 0 000 6.47 4.577 4.577 0 005.047.96l.028-.013a4.255 4.255 0 00.507-.262l.004-.002a4.576 4.576 0 002.189-4.186 4.58 4.58 0 00-5.711-4.15l-.027.008a3.326 3.326 0 00-.46.151l-.037.015-.033.013c-.051.02-.103.04-.154.063-.09.04-.179.085-.268.133l-.035.017-.049.026c-.359.2-.696.453-1.001.757z" fill="#232C69"/><path fill-rule="evenodd" clip-rule="evenodd" d="M85.527 9.263H82.33v21.791h3.196V9.263zM31.62 26.638c.175 2.906 2.819 4.707 6.218 4.707h.655c3.25-.002 5.688-1.484 5.688-4.3 0-2.209-1.25-3.72-3.864-4.388l-3.09-.64c-1.22-.32-1.946-.813-1.946-1.743 0-.93.9-1.482 2.121-1.482h.651c1.132.001 2.09.582 2.38 1.802h3.195c-.129-1.453-.86-2.638-2.021-3.403-.927-.61-2.129-.954-3.52-.955h-.657c-1.497 0-2.761.345-3.69.955-1.087.715-1.713 1.795-1.713 3.113 0 2.12 1.22 3.748 3.719 4.387l3.03.64c1.511.377 2.15.93 2.15 1.917 0 .986-.954 1.538-2.344 1.54h-.657c-1.424 0-2.731-.581-2.993-2.15h-3.311zm15.28-2.848c0 4.185 3.195 7.555 7.61 7.555 3.836 0 6.596-2.383 7.38-5.608h-3.37c-.581 1.57-2.005 2.702-4.01 2.702-2.585 0-4.357-1.946-4.357-4.649 0-2.702 1.772-4.648 4.358-4.648 2.005 0 3.428 1.133 4.009 2.702h3.37c-.784-3.225-3.544-5.608-7.38-5.608-4.415 0-7.61 3.37-7.61 7.554zm24.363-7.554c2.092 0 3.835 1.075 4.649 2.237v-1.947h3.195v14.528h-3.195v-1.946c-.814 1.162-2.557 2.237-4.649 2.237-3.98 0-7.001-3.4-7.001-7.555 0-4.154 3.021-7.554 7.001-7.554zm.581 2.906c-2.585 0-4.328 2.034-4.328 4.648 0 2.616 1.743 4.65 4.328 4.65 2.586 0 4.329-2.035 4.329-4.65 0-2.614-1.743-4.648-4.329-4.648zm24.2 12.203c-4.329 0-7.437-3.196-7.437-7.555 0-4.3 2.992-7.554 7.466-7.554 4.445 0 7.554 3.4 7.263 8.34H91.774c.117 2.207 1.802 3.95 4.387 3.95 1.598 0 2.993-.639 3.66-2.033h3.342c-.814 2.73-3.428 4.852-7.118 4.852zm-4.155-9.036h8.019c-.494-2.354-2.15-3.4-3.922-3.4-2.005 0-3.66 1.162-4.097 3.4zm26.385-4.232a7.534 7.534 0 012.604 5.258 7.545 7.545 0 01-2.592 6.167l.006.006c-.039.035-.08.066-.121.097a2.7 2.7 0 00-.082.063c-.075.06-.15.12-.226.177a7.925 7.925 0 01-.651.436l-.051.03-.096.057c-.18.102-.367.197-.557.285l-.019.009-.016.008c-.658.3-1.368.51-2.116.611l-.001-.013a7.537 7.537 0 01-6.335-2.142 7.532 7.532 0 01-2.21-5.436l-.025.001a7.559 7.559 0 014.592-6.848l.014-.007a7.592 7.592 0 011.7-.493l.078-.013a7.537 7.537 0 016.122 1.729l-.018.018zm-8.146 2.472a4.58 4.58 0 000 6.47 4.577 4.577 0 005.047.96l.028-.013a4.255 4.255 0 00.507-.262l.004-.002a4.576 4.576 0 002.189-4.186 4.58 4.58 0 00-5.711-4.15l-.027.008a3.326 3.326 0 00-.46.151l-.037.015-.033.013c-.051.02-.103.04-.154.063-.09.04-.179.085-.268.133l-.035.017-.049.026c-.359.2-.696.453-1.001.757z" fill="#272F69"/><path fill-rule="evenodd" clip-rule="evenodd" d="M25.06 2.824a7.055 7.055 0 010 14.109 7.04 7.04 0 01-3.724-1.07l2.554-2.555a3.603 3.603 0 003.734-.866 3.63 3.63 0 000-5.128 3.602 3.602 0 00-2.564-1.062c-.968 0-1.879.377-2.564 1.062a3.628 3.628 0 00-.864 3.732l-2.556 2.557c-1.697-2.722-1.37-6.347.996-8.713a7.031 7.031 0 014.988-2.066zm-8.809 25.778c2.344-2.344 2.671-5.946.995-8.65l3.084-3.083c3.327 4.425 2.978 10.736-1.049 14.764a11.258 11.258 0 01-7.986 3.308c-2.89 0-5.782-1.103-7.987-3.309-4.41-4.411-4.41-11.563 0-15.975a11.258 11.258 0 017.987-3.308c2.388 0 4.774.755 6.775 2.26l-3.082 3.083a6.958 6.958 0 00-3.693-1.058c-1.873 0-3.633.73-4.957 2.054a7.02 7.02 0 000 9.914 6.964 6.964 0 004.957 2.054c1.872 0 3.632-.73 4.956-2.054z" fill="url(#paint0_linear)"/><defs><linearGradient id="paint0_linear" x1="19.813" y1="32.471" x2="2.698" y2="14.252" gradientUnits="userSpaceOnUse"><stop stop-color="#F4558C"/><stop offset="1" stop-color="#E23370"/></linearGradient></defs></svg>