<svg width="342" height="102" fill="none" xmlns="http://www.w3.org/2000/svg"><g clip-path="url(#clip0)"><path d="M106.949 88.81c-9.608 0-17.08-5.103-17.573-13.336h9.361c.74 4.446 4.435 6.092 8.458 6.092h1.859c3.927-.006 6.626-1.57 6.626-4.363 0-2.8-1.807-4.364-6.077-5.434l-8.567-1.811c-7.062-1.811-10.511-6.421-10.511-12.431 0-3.732 1.77-6.792 4.844-8.82 2.623-1.729 6.195-2.706 10.429-2.706h1.858c3.929.004 7.326.979 9.946 2.708 3.284 2.168 5.348 5.523 5.714 9.64h-9.032c-.821-3.455-3.528-5.102-6.727-5.104h-1.839c-3.449 0-5.995 1.564-5.995 4.199 0 2.634 2.053 4.033 5.501 4.94l8.732 1.81c7.39 1.894 10.921 6.175 10.921 12.431 0 7.98-6.889 12.18-16.077 12.185h-1.851zM154.075 88.81c-12.482 0-21.514-9.549-21.514-21.404s9.032-21.404 21.514-21.404c10.839 0 18.64 6.75 20.857 15.889h-9.525c-1.643-4.446-5.666-7.657-11.332-7.657-7.308 0-12.317 5.516-12.317 13.172 0 7.656 5.009 13.172 12.317 13.172 5.666 0 9.689-3.21 11.332-7.656h9.525c-2.217 9.138-10.018 15.889-20.857 15.889zM201.425 46.002c5.912 0 10.839 3.046 13.138 6.34v-5.517h9.032v41.162h-9.032v-5.515c-2.299 3.293-7.226 6.339-13.138 6.339-11.25 0-19.79-9.632-19.79-21.405 0-11.772 8.54-21.404 19.79-21.404zm1.642 8.232c-7.308 0-12.235 5.763-12.235 13.172 0 7.41 4.927 13.172 12.235 13.172 7.309 0 12.235-5.763 12.235-13.172 0-7.409-4.926-13.172-12.235-13.172zM232.704 26.244h9.033v61.743h-9.032V26.244h-.001zM271.466 88.81c-12.235 0-21.021-9.055-21.021-21.404 0-12.184 8.457-21.404 21.104-21.404 12.563 0 21.349 9.632 20.528 23.627h-32.682c.329 6.257 5.091 11.196 12.4 11.196 4.516 0 8.457-1.81 10.346-5.763h9.443c-2.299 7.74-9.689 13.749-20.118 13.749zm-11.743-25.602h22.664c-1.395-6.668-6.076-9.632-11.085-9.632-5.666 0-10.347 3.293-11.579 9.632zM341.96 66.073a21.356 21.356 0 00-7.36-14.897l.052-.053c-4.902-4.241-11.267-5.86-17.302-4.897-.118.018-.233.04-.35.06a21.28 21.28 0 00-3.077.774 21.28 21.28 0 00-1.558.582c-.028.011-.055.025-.083.037-7.61 3.25-12.871 10.775-12.979 19.403l.072-.004c-.069 5.566 2.01 11.154 6.247 15.402 4.885 4.897 11.547 6.912 17.905 6.07l.002.036a21.18 21.18 0 005.98-1.731c.034-.016.066-.033.1-.048.538-.25 1.065-.517 1.576-.808.139-.079.275-.165.414-.247.385-.231.764-.471 1.133-.725a21.956 21.956 0 001.345-1.011c.191-.154.389-.29.576-.453l-.018-.017c4.84-4.217 7.745-10.56 7.325-17.474zM311.576 76.51c-5.042-5.054-5.039-13.278 0-18.33a12.896 12.896 0 012.83-2.146c.078-.043.16-.081.238-.123.25-.133.502-.261.758-.376.173-.077.351-.145.527-.215.168-.067.335-.137.506-.197.295-.102.594-.192.899-.273.055-.015.109-.033.164-.047a12.922 12.922 0 012.366-.367c7.116-.434 13.256 5.02 13.69 12.15.3 4.944-2.219 9.418-6.161 11.844l-.04.022c-.285.174-.578.334-.877.485-.183.091-.369.175-.554.257-.132.06-.264.12-.399.175-4.655 1.864-10.182.916-13.947-2.859z" fill="#232C69"/><path fill-rule="evenodd" clip-rule="evenodd" d="M70.83 8a19.849 19.849 0 0114.099 5.855c7.785 7.805 7.785 20.46 0 28.266a19.862 19.862 0 01-24.625 2.824l7.22-7.24c1.052.36 2.163.557 3.307.557a10.17 10.17 0 007.247-3.01c3.996-4.005 3.996-10.523 0-14.53a10.17 10.17 0 00-7.247-3.008 10.17 10.17 0 00-7.246 3.009c-2.85 2.856-3.656 6.986-2.442 10.575l-7.226 7.244c-4.797-7.714-3.87-17.985 2.816-24.687A19.849 19.849 0 0170.83 8zM45.935 81.04c6.624-6.642 7.55-16.848 2.812-24.507l8.716-8.739c9.402 12.538 8.418 30.42-2.964 41.831A31.782 31.782 0 0131.924 99a31.78 31.78 0 01-22.573-9.375c-12.467-12.499-12.467-32.763 0-45.262a31.78 31.78 0 0122.573-9.374 31.779 31.779 0 0119.152 6.402l-8.714 8.736a19.63 19.63 0 00-10.438-2.996 19.656 19.656 0 00-14.01 5.818c-7.724 7.745-7.724 20.346 0 28.09a19.658 19.658 0 0014.01 5.819 19.657 19.657 0 0014.01-5.818z" fill="url(#paint0_linear)"/></g><defs><linearGradient id="paint0_linear" x1="56" y1="92" x2="7.5" y2="40.5" gradientUnits="userSpaceOnUse"><stop stop-color="#E46074"/><stop offset="1" stop-color="#DA354C"/></linearGradient><clipPath id="clip0"><path fill="#fff" d="M0 8h342v91H0z"/></clipPath></defs></svg>