<svg width="28" height="28" fill="none" xmlns="http://www.w3.org/2000/svg"><path d="M0 4a4 4 0 014-4h20a4 4 0 014 4v20a4 4 0 01-4 4H4a4 4 0 01-4-4V4z" fill="#E47E9B"/><path d="M6.552 14.145H5.506A.506.506 0 005 14.65v7.12c0 .28.226.506.506.506h1.047A1.52 1.52 0 008.07 20.76v-5.095a1.52 1.52 0 00-1.519-1.52zM21.862 14.337a1.01 1.01 0 00-1.336.132l-2.734 3.401c-.192.203-.557.324-.75.324h-3.404a.502.502 0 01-.506-.506c0-.284.222-.507.506-.507h3.07c.557 0 1.013-.455 1.013-1.012 0-.557-.455-1.013-1.012-1.013h-2.686c-.253 0-.378-.16-.577-.334a3.546 3.546 0 00-4.363-.237v6.679h7.626c.951 0 1.862-.49 2.43-1.249l2.935-4.252a1.017 1.017 0 00-.212-1.426z" fill="#fff"/><path d="M14.206 14.145h2.504c.366 0 .703.109 1 .28a5.544 5.544 0 001.53-3.823c0-3.07-2.53-5.602-5.6-5.602-3.071 0-5.569 2.532-5.569 5.602 0 1.047.292 2.054.828 2.922.68-.38 1.436-.59 2.22-.59 1.076 0 2.164.377 3.087 1.21zm-.814-4.341c-.73-.246-1.227-.586-1.227-1.248 0-.6.423-1.071 1.152-1.214v-.648h.668v.6c.457.02.764.116.99.225l-.198.77c-.178-.074-.49-.23-.982-.23-.443 0-.586.19-.586.381 0 .225.238.368.818.586.812.287 1.139.661 1.139 1.276 0 .607-.43 1.124-1.214 1.261v.695h-.669v-.647c-.456-.02-.9-.143-1.159-.293l.205-.798c.286.157.688.3 1.131.3.389 0 .655-.15.655-.423 0-.26-.218-.423-.723-.593z" fill="#fff"/></svg>