<svg width="28" height="28" fill="none" xmlns="http://www.w3.org/2000/svg"><path d="M0 4a4 4 0 014-4h20a4 4 0 014 4v20a4 4 0 01-4 4H4a4 4 0 01-4-4V4z" fill="#68D1D9"/><path d="M13.643 14.705a.803.803 0 01-.104-.132l-.008-.008c-.01-.018-.017-.037-.026-.055-.012-.024-.025-.047-.035-.072-.01-.026-.017-.052-.024-.078-.006-.023-.013-.045-.017-.068-.005-.028-.007-.057-.008-.085-.002-.018-.006-.035-.006-.053V6C9.255 6.393 6 9.892 6 14.154a8.194 8.194 0 0013.41 6.319l-5.767-5.768z" fill="#fff"/><path d="M20.513 19.371a8.16 8.16 0 001.019-8.847L15.44 14.3l5.073 5.072zM14.973 12.755L20.71 9.2A8.171 8.171 0 0014.973 6v6.755z" fill="#fff"/></svg>