<svg width="19" height="19" fill="none" xmlns="http://www.w3.org/2000/svg"><mask id="a" maskUnits="userSpaceOnUse" x="1" y="1" width="17" height="16"><path d="M8.625 1.584a1 1 0 011.75 0l1.88 3.403a1 1 0 00.686.498l3.817.736a1 1 0 01.541 1.665l-2.655 2.84a1 1 0 00-.262.806l.479 3.858a1 1 0 01-1.416 1.029L9.924 14.77a1 1 0 00-.848 0l-3.52 1.648a1 1 0 01-1.417-1.03l.479-3.857a1 1 0 00-.262-.806l-2.655-2.84a1 1 0 01.541-1.665l3.817-.736a1 1 0 00.686-.498l1.88-3.403z" fill="#FFAF37"/></mask><g mask="url(#a)"><path fill="#B6B9BE" d="M0 0h19v19H0z"/><path fill="#FFAF37" d="M0 0h12v19H0z"/></g></svg>