<svg width="172" height="39" fill="none" xmlns="http://www.w3.org/2000/svg"><g clip-path="url(#clip0)"><g clip-path="url(#clip1)"><path d="M44.939 12.886h17.314v3.23h-6.808v18.162h-3.743V16.116h-6.778v-3.23h.015zm16.575 5.903h3.2v2.989h.06c.106-.423.302-.83.589-1.223.287-.392.634-.77 1.041-1.087a5.55 5.55 0 011.36-.8 4.155 4.155 0 011.524-.302c.392 0 .679.015.83.03.15.015.302.045.468.06v3.292a10.886 10.886 0 00-.74-.106 6.267 6.267 0 00-.74-.045c-.573 0-1.116.12-1.63.347a3.757 3.757 0 00-1.328 1.011c-.377.453-.68.997-.906 1.661-.226.664-.332 1.42-.332 2.28v7.367H61.5V18.79h.015zm24.756 15.49h-3.351v-2.16h-.06c-.423.785-1.042 1.404-1.872 1.872-.83.468-1.676.71-2.536.71-2.038 0-3.518-.498-4.423-1.51-.906-1.011-1.359-2.536-1.359-4.574v-9.828h3.412v9.496c0 1.358.256 2.325.785 2.883.513.559 1.252.846 2.188.846.725 0 1.314-.106 1.797-.333.483-.226.875-.513 1.162-.89.302-.363.513-.816.65-1.329a6.545 6.545 0 00.195-1.675v-8.983h3.412v15.474zm5.812-4.968c.105.997.483 1.691 1.132 2.099.664.392 1.449.604 2.37.604.317 0 .68-.03 1.087-.076.407-.045.8-.15 1.147-.287.362-.136.649-.347.89-.619.227-.271.333-.619.317-1.056a1.458 1.458 0 00-.483-1.072c-.301-.287-.679-.499-1.147-.68a11.498 11.498 0 00-1.6-.438c-.604-.12-1.207-.256-1.826-.392a17.315 17.315 0 01-1.842-.513 5.623 5.623 0 01-1.585-.816 3.585 3.585 0 01-1.117-1.298c-.287-.528-.423-1.177-.423-1.963 0-.845.212-1.54.62-2.113a4.693 4.693 0 011.554-1.374 7.204 7.204 0 012.098-.74c.77-.136 1.51-.211 2.204-.211.8 0 1.57.09 2.295.257a5.913 5.913 0 011.977.83 4.88 4.88 0 011.464 1.48c.393.603.634 1.343.74 2.204h-3.563c-.166-.816-.528-1.374-1.117-1.646-.588-.287-1.267-.423-2.022-.423-.242 0-.529.015-.86.06-.333.046-.635.121-.937.227a2.03 2.03 0 00-.74.483c-.196.212-.301.483-.301.83 0 .423.15.755.438 1.012.286.257.664.468 1.132.65.468.165.996.316 1.6.437.604.12 1.222.257 1.856.393.62.136 1.223.317 1.827.513a5.511 5.511 0 011.6.815c.468.347.845.77 1.132 1.283.287.514.438 1.163.438 1.918 0 .92-.211 1.69-.634 2.34a5.022 5.022 0 01-1.63 1.555 7.668 7.668 0 01-2.234.875c-.815.181-1.63.272-2.43.272-.982 0-1.888-.106-2.718-.332-.83-.227-1.555-.559-2.159-.996a4.94 4.94 0 01-1.434-1.676c-.347-.665-.528-1.465-.558-2.386h3.442v-.03zm11.261-10.522h2.581v-4.65h3.412v4.65h3.079v2.551h-3.079v8.273c0 .363.015.665.045.936.03.257.106.483.211.665a.97.97 0 00.498.407c.227.09.514.136.906.136.242 0 .483 0 .725-.015a3.99 3.99 0 00.724-.106v2.642c-.377.046-.754.076-1.102.121-.362.045-.724.06-1.102.06-.905 0-1.63-.09-2.173-.256-.544-.166-.982-.423-1.283-.755-.317-.332-.514-.74-.634-1.238a9.268 9.268 0 01-.197-1.706V21.37h-2.581V18.79h-.03zm11.487 0h3.231v2.098h.06c.483-.906 1.147-1.54 2.008-1.932a6.612 6.612 0 012.792-.59c1.223 0 2.28.212 3.186.65a6.232 6.232 0 012.264 1.766c.604.755 1.041 1.63 1.343 2.627.302.997.453 2.069.453 3.2 0 1.043-.136 2.054-.407 3.02a8.097 8.097 0 01-1.223 2.597c-.544.755-1.238 1.344-2.083 1.797-.846.453-1.827.679-2.974.679-.498 0-.996-.045-1.494-.136a6.567 6.567 0 01-1.435-.438 5.205 5.205 0 01-1.268-.77 4.801 4.801 0 01-.981-1.087h-.06V40h-3.412V18.789zm11.926 7.76c0-.695-.091-1.374-.272-2.039a5.499 5.499 0 00-.815-1.75 4.145 4.145 0 00-1.344-1.224 3.762 3.762 0 00-1.856-.468c-1.434 0-2.521.498-3.246 1.495-.724.996-1.087 2.325-1.087 3.986 0 .785.091 1.51.287 2.174.196.664.468 1.237.86 1.72.378.484.831.861 1.359 1.133.528.287 1.147.422 1.842.422.785 0 1.434-.166 1.977-.483a4.18 4.18 0 001.329-1.238 5.148 5.148 0 00.754-1.736c.136-.649.212-1.313.212-1.992zm6.023-13.663h3.411v3.23h-3.411v-3.23zm0 5.903h3.411v15.49h-3.411v-15.49zm6.461-5.903h3.411v21.392h-3.411V12.886zM153.112 34.7c-1.238 0-2.34-.211-3.306-.62a7.295 7.295 0 01-2.46-1.69 7.364 7.364 0 01-1.525-2.581c-.347-.997-.528-2.099-.528-3.292 0-1.177.181-2.264.528-3.26a7.363 7.363 0 011.525-2.582c.664-.725 1.494-1.284 2.46-1.691.966-.408 2.068-.62 3.306-.62s2.34.212 3.306.62a7.308 7.308 0 012.461 1.69 7.36 7.36 0 011.524 2.582c.347.997.529 2.084.529 3.261 0 1.193-.182 2.295-.529 3.291a7.362 7.362 0 01-1.524 2.582c-.665.725-1.495 1.283-2.461 1.69-.966.409-2.068.62-3.306.62zm0-2.703c.755 0 1.419-.166 1.978-.483a4.208 4.208 0 001.373-1.253c.363-.513.619-1.102.8-1.75.166-.65.257-1.314.257-1.994 0-.664-.091-1.313-.257-1.977a5.15 5.15 0 00-.8-1.752 4.164 4.164 0 00-1.373-1.238c-.559-.317-1.223-.483-1.978-.483-.755 0-1.419.166-1.977.483a4.328 4.328 0 00-1.374 1.238 5.474 5.474 0 00-.8 1.752 8.084 8.084 0 00-.257 1.977c0 .68.091 1.344.257 1.993.166.65.438 1.238.8 1.751.362.514.815.936 1.374 1.253.558.333 1.222.483 1.977.483zm8.816-13.21h2.581v-4.65h3.412v4.65H171v2.552h-3.079v8.273c0 .363.015.665.045.936.03.257.106.483.211.665a.97.97 0 00.498.407c.227.09.514.136.906.136.242 0 .483 0 .725-.015a3.99 3.99 0 00.724-.106v2.642c-.377.046-.754.076-1.102.121-.362.045-.724.06-1.102.06-.905 0-1.63-.09-2.173-.256-.544-.166-.982-.423-1.283-.755-.317-.332-.514-.74-.634-1.238a9.268 9.268 0 01-.197-1.706V21.37h-2.581V18.79h-.03z" fill="#333"/><path d="M40.954 12.886h-15.64L20.485-2 15.64 12.886 0 12.87l12.665 9.209-4.846 14.87 12.665-9.194 12.65 9.194-4.83-14.87 12.65-9.194z" fill="#00B67A"/><path d="M29.39 25.446l-1.086-3.366-7.82 5.676 8.907-2.31z" fill="#005128"/></g></g><defs><clipPath id="clip0"><path d="M0 0h172v39H0V0z" fill="#fff"/></clipPath><clipPath id="clip1"><path fill="#fff" d="M0-2h171v42H0z"/></clipPath></defs></svg>